<?xml version="1.0" encoding="utf-8"?>
<!-- Generator: Adobe Illustrator 19.2.0, SVG Export Plug-In . SVG Version: 6.00 Build 0)  -->
<svg version="1.1" id="Layer_1" xmlns="http://www.w3.org/2000/svg" xmlns:xlink="http://www.w3.org/1999/xlink" x="0px" y="0px"
	 viewBox="0 0 1260 412" style="enable-background:new 0 0 1260 412;" xml:space="preserve">
<style type="text/css">
	.st0{fill:#E31937;}
	.st1{fill:#FFFFFF;}
	.st2{fill:none;}
	.st3{fill:#A17342;}
	.st4{fill:#786E63;}
</style>
<g>
	<g>
		<rect x="273.6" y="220.9" class="st0" width="711.2" height="83.1"/>
		<path class="st1" d="M315.3,252.1c0-1.8,0-1.9-1.2-1.9h-2.4c-4,0-5.1,0.5-6.7,4c-0.3,0.3-1.2,0.1-1.4-0.3c0.7-2.3,1.4-5,1.7-6.5
			c0.1-0.1,0.3-0.2,0.5-0.2c0.2,0,0.3,0,0.4,0.2c0.2,1.1,0.8,1.1,3.7,1.1h17.6c2.1,0,2.8-0.1,3.3-1.1c0.2-0.1,0.3-0.2,0.5-0.2
			c0.3,0,0.5,0.1,0.6,0.2c-0.4,1.8-0.8,5.5-0.6,6.9c-0.2,0.3-1,0.4-1.3,0.1c-0.6-3.4-1.4-4.2-6-4.2h-2.5c-1.1,0-1.2,0.1-1.2,1.9
			v18.7c0,4.6,0.4,4.7,2.4,4.9l1.5,0.2c0.3,0.3,0.3,1.1-0.1,1.3c-2.5-0.1-4.4-0.1-6.3-0.1c-1.9,0-3.9,0-6.7,0.1
			c-0.3-0.2-0.4-1-0.1-1.3l1.8-0.2c2-0.2,2.4-0.3,2.4-4.9V252.1"/>
		<path class="st1" d="M345.3,263.1c-2.2,0-2.3,0.1-2.3,1.2v6.4c0,4.6,0.4,4.7,2.4,4.9l1.3,0.2c0.3,0.3,0.3,1.1-0.1,1.3
			c-2.2-0.1-4.2-0.1-6.1-0.1c-1.9,0-3.8,0-5.5,0.1c-0.3-0.2-0.4-0.9-0.1-1.3l0.6-0.1c2-0.3,2.4-0.4,2.4-5v-16.1c0-4.6-0.4-4.7-2.4-5
			l-0.9-0.1c-0.3-0.2-0.3-1.1,0.1-1.3c1.9,0.1,3.9,0.1,5.8,0.1c1.9,0,3.8,0,5.5-0.1c0.3,0.2,0.4,1,0.1,1.3l-0.7,0.1
			c-2,0.3-2.4,0.4-2.4,5v5.2c0,1.2,0.1,1.3,2.3,1.3h10.1c2.2,0,2.3-0.1,2.3-1.3v-5.2c0-4.6-0.4-4.7-2.4-5l-0.9-0.1
			c-0.3-0.2-0.3-1.1,0.1-1.3c2,0.1,3.9,0.1,5.8,0.1c1.9,0,3.8,0,5.6-0.1c0.4,0.2,0.4,1,0.1,1.3l-0.8,0.1c-2,0.3-2.4,0.4-2.4,5v16.1
			c0,4.6,0.4,4.7,2.4,5l1,0.1c0.3,0.3,0.3,1.1-0.1,1.3c-1.9-0.1-3.8-0.1-5.7-0.1c-2,0-3.9,0-5.8,0.1c-0.3-0.2-0.4-0.9-0.1-1.3
			l0.9-0.1c2-0.3,2.4-0.4,2.4-5v-6.4c0-1.2-0.1-1.2-2.3-1.2H345.3"/>
		<path class="st1" d="M373.4,254.7c0-4.6-0.4-4.7-2.4-5l-0.7-0.1c-0.3-0.3-0.3-1.1,0.1-1.3c0.8,0,1.7,0.1,2.7,0.1
			c0.9,0,1.9,0,2.9,0h8.2c2.8,0,5.3,0,5.8-0.1c0.2,0.7,0.4,4.2,0.7,6c-0.2,0.3-1,0.4-1.4,0.2c-0.7-2.5-1.3-3.6-2.7-3.9
			c-1-0.3-2.3-0.4-3.4-0.4h-2.9c-1.9,0-1.9,0.1-1.9,2.6v7.3c0,1.1,0,1.2,1,1.2h2.1c3.8,0,4.5,0,4.8-1.9l0.3-1.5
			c0.3-0.3,1.2-0.3,1.4,0.1c0,1.2-0.1,2.7-0.1,4.3c0,1.6,0.1,3.2,0.1,4.5c-0.2,0.3-1,0.3-1.4,0l-0.3-1.7c-0.3-1.8-1-1.9-4.8-1.9
			h-2.1c-1,0-1,0.1-1,1.2v5.5c0,2.2,0.1,3.8,0.7,4.5c0.5,0.6,1.3,0.9,4.9,0.9c5.5,0.1,6.4-1.2,7.9-4.7c0.4-0.3,1.1-0.2,1.4,0.3
			c-0.3,1.8-1.2,5.1-1.8,6.3c-1,0-2.3-0.1-4.1-0.1c-1.8,0-4,0-6.5,0H376c-1.9,0-4.5,0-6.5,0.1c-0.3-0.2-0.4-0.9-0.1-1.3l1.6-0.2
			c2-0.2,2.4-0.3,2.4-4.9V254.7"/>
		<path class="st1" d="M443,275.9c0.4,0.2,0.4,1.1-0.1,1.3c-1.9-0.1-3.5-0.1-5.3-0.1c-2,0-3.9,0-5.8,0.1c-0.3-0.2-0.5-1-0.1-1.3
			l1.2-0.2c1.7-0.3,1.9-0.6,1.9-3.5v-13.7v-4h-0.1c-1.2,2.4-1.8,3.7-2.6,5.4l-3.7,7.6c-1.5,3-3.6,7.8-4.4,9.9
			c-0.2,0.2-0.8,0.2-1.1,0c-0.7-2.3-2.6-6.6-3.6-8.7l-3.8-8.3c-0.8-1.8-2-4.5-2.5-5.8h-0.1c-0.1,2.1-0.2,5.5-0.3,7.3
			c-0.1,2.6-0.2,6.5-0.2,10c0,2.9,0,3.5,1.9,3.9l1.4,0.3c0.3,0.3,0.3,1.1,0,1.3c-1.6-0.1-2.9-0.1-4.5-0.1c-1.4,0-2.9,0-4.6,0.1
			c-0.4-0.2-0.4-1-0.1-1.3l0.7-0.1c2.1-0.3,2.4-0.9,2.7-3.5c0.3-2.7,0.4-5.5,0.6-10c0.2-2.9,0.4-6.5,0.4-9.2c0-2-0.6-2.9-2.3-3.2
			l-1.5-0.3c-0.3-0.3-0.2-1.1,0.2-1.3c1.3,0.1,2.5,0.1,4.1,0.1c1.5,0,3,0,4.6-0.1c0.2,2.6,1.3,4.9,2.4,7.2l4.7,10
			c0.3,0.7,1.5,2.9,2,3.9c0.7-1.3,1.3-2.5,2.3-4.5l4-8.3c1.4-2.9,2.8-5.4,3.5-8.3c1.2,0.1,2.6,0.1,3.5,0.1c1.8,0,3.3,0,4.5-0.1
			c0.5,0.2,0.6,1,0.1,1.3l-1.4,0.2c-1.9,0.3-2.3,1-2.3,3.3c0,6.4,0.1,12.8,0.4,19.2c0.1,2.9,0.6,3.2,2,3.4L443,275.9"/>
		<path class="st1" d="M449.5,250.9c2.2-1.7,5.2-2.6,8.3-2.6c2.1,0,4.1,0.3,5.2,0.6c0.6,0.2,0.9,0.2,1.1,0.2c0,0.8,0.1,2.5,0.5,5.1
			c-0.2,0.3-1,0.3-1.2,0c-0.6-2.3-2-4.4-5.7-4.4c-3.7,0-6.7,2.9-6.7,8.2c0,5.6,3.2,8.5,7,8.5c3.7,0,5.3-2.9,6-4.7
			c0.2-0.3,0.9-0.2,1.1,0.1c-0.2,2.4-1,4.5-1.4,5.2c-0.3,0-0.7,0.2-1,0.3c-0.9,0.3-3,0.8-5.2,0.8c-2.7,0-5.4-0.5-7.7-2
			c-2.2-1.5-4.1-4.2-4.1-7.7C445.8,255.2,447.3,252.6,449.5,250.9"/>
		<path class="st1" d="M476.9,259.5c0,1.2,0,1.9,0.7,1.9c0.8,0,1.8-1,3.2-2.6l4.4-4.8c0.6-0.6,1.8-2,2.3-2.7c0.8-1,0.8-1.3,0.3-1.5
			l-1.3-0.4c-0.3-0.3-0.3-0.9,0.1-1.3c1.8,0.1,3.2,0.1,4.8,0.1c1.9,0,3.2-0.1,4.7-0.1c0.5,0.1,0.6,1,0.1,1.3c-4,0.6-5.2,1.6-8.2,4.5
			c-1.9,1.9-3.6,3.6-5.3,5.3c-0.5,0.5-0.6,0.8-0.1,1.4c3.4,4.5,7.5,9.6,10.6,13.3c0.9,1.1,1.9,1.5,3.2,1.6l1,0.1
			c0.3,0.2,0.3,1.1-0.1,1.3c-1.5-0.1-3.2-0.1-5.5-0.1c-2.1,0-4.1,0-6,0.1c-0.5-0.2-0.5-1-0.1-1.3l1.2-0.2c0.7-0.1,0.8-0.6,0.3-1.2
			c-1.8-2.3-6.9-9.3-8.5-10.9c-0.3-0.3-0.7-0.6-1-0.6c-1.1,0-1,1-1,2.3v5.5c0,4.6,0.4,4.7,2.4,5l1.1,0.1c0.3,0.2,0.3,1.1-0.1,1.3
			c-2-0.1-4-0.1-5.9-0.1c-1.9,0-3.9,0-5.5,0.1c-0.3-0.2-0.4-1-0.1-1.3l0.6-0.1c2-0.3,2.4-0.4,2.4-5v-16.1c0-4.6-0.4-4.7-2.4-5
			l-0.8-0.1c-0.3-0.3-0.3-1.1,0.1-1.3c1.8,0.1,3.7,0.1,5.7,0.1c1.9,0,3.8,0,5.5-0.1c0.3,0.2,0.4,1,0.1,1.3l-0.7,0.1
			c-2,0.3-2.4,0.4-2.4,5V259.5"/>
		<path class="st1" d="M527.3,269.6c0,1.3,0,6.6,0.1,7.6c-0.3,0.5-0.9,0.6-1.5,0.6c-0.7-0.9-1.9-2.4-5-5.9l-10.1-11.5
			c-2.8-3.2-4.2-4.8-4.9-5.5c-0.1,0-0.1,0.5-0.1,2.8v8.4c0,3.2,0.1,7.2,0.8,8.5c0.4,0.6,1.1,0.9,2.2,1.1l1,0.1
			c0.4,0.3,0.3,1.1-0.1,1.3c-1.6-0.1-3.3-0.1-4.9-0.1c-1.8,0-3,0-4.5,0.1c-0.3-0.2-0.4-1-0.1-1.3l0.9-0.2c0.8-0.1,1.6-0.3,1.9-1
			c0.6-1.3,0.6-5.1,0.6-8.5v-10.3c0-3.4,0-4.1-1.4-5.3c-0.5-0.4-1.7-0.7-2.3-0.9l-0.6-0.1c-0.3-0.3-0.3-1.1,0.2-1.3
			c1.6,0.2,4,0.1,5.1,0.1c0.9,0,1.9,0,3-0.1c0.7,1.9,5.4,7.3,7,9l4.3,4.7c1.8,2,5.8,6.6,6.3,6.8c0.1-0.1,0.1-0.4,0.1-1v-8.4
			c0-3.2,0-7.2-0.8-8.5c-0.4-0.7-1.1-0.9-2.2-1.1l-1-0.1c-0.4-0.3-0.3-1.1,0.1-1.3c1.7,0.1,3.3,0.1,5,0.1c1.9,0,3,0,4.5-0.1
			c0.4,0.2,0.4,1,0.1,1.3l-1,0.2c-0.8,0.1-1.5,0.3-1.9,1c-0.6,1.3-0.6,5.1-0.6,8.5V269.6"/>
		<path class="st1" d="M542.7,270.8c0,4.6,0.4,4.7,2.4,5l1,0.1c0.3,0.3,0.3,1.1-0.1,1.3c-1.9-0.1-3.8-0.1-5.7-0.1
			c-1.9,0-3.9,0-5.8,0.1c-0.3-0.2-0.4-0.9-0.1-1.3l1-0.1c2-0.3,2.4-0.4,2.4-5v-16.1c0-4.6-0.4-4.7-2.4-5l-1-0.1
			c-0.3-0.3-0.3-1.1,0.1-1.3c1.9,0.1,3.8,0.1,5.8,0.1c1.9,0,3.8,0,5.7-0.1c0.4,0.2,0.4,1,0.1,1.3l-1,0.1c-2,0.3-2.4,0.4-2.4,5V270.8
			"/>
		<path class="st1" d="M575.5,272.5c0,1.5,0.2,2.6,1,3c0.1,0.2,0.1,0.5,0,0.7c-0.5,0-1.3,0.1-2.1,0.3c-2.7,0.6-5.9,1.2-8.4,1.2
			c-5.2,0-10.1-1.4-13.3-4.8c-2.5-2.6-3.8-6.3-3.8-9.9c0-3.6,1.3-7.4,4-10.2c3.1-3.2,7.8-5.1,13.8-5.1c2,0,4.2,0.3,5.7,0.6
			c1,0.2,2.2,0.4,2.8,0.4c0,1.3,0.3,3.5,0.6,6.9c-0.2,0.4-1.2,0.5-1.4,0.1c-0.9-4.2-4-6.3-8.3-6.3c-7.6,0-11.3,5.5-11.3,12.8
			c0,3.5,0.8,7.2,3.1,9.9c2.3,2.8,5.8,3.7,8.3,3.7c2.1,0,3.3-0.3,3.8-1c0.3-0.4,0.4-1.2,0.4-2.7v-1.6c0-3.1,0-3.3-2.9-3.8l-1.5-0.3
			c-0.3-0.3-0.3-1,0-1.3c1.7,0.1,3.8,0.1,6.7,0.1c1.9,0,3.4,0,5.3-0.1c0.4,0.2,0.5,1,0.1,1.3l-0.8,0.1c-1.6,0.2-1.9,0.6-1.9,3.2
			V272.5"/>
		<path class="st1" d="M592.1,263.1c-2.2,0-2.3,0.1-2.3,1.2v6.4c0,4.6,0.4,4.7,2.4,4.9l1.3,0.2c0.3,0.3,0.3,1.1-0.1,1.3
			c-2.2-0.1-4.2-0.1-6.1-0.1c-1.9,0-3.8,0-5.5,0.1c-0.3-0.2-0.4-0.9-0.1-1.3l0.6-0.1c2-0.3,2.4-0.4,2.4-5v-16.1c0-4.6-0.4-4.7-2.4-5
			l-1-0.1c-0.3-0.2-0.3-1.1,0.1-1.3c1.9,0.1,3.9,0.1,5.8,0.1c1.9,0,3.8,0,5.5-0.1c0.4,0.2,0.4,1,0.1,1.3l-0.7,0.1
			c-2,0.3-2.4,0.4-2.4,5v5.2c0,1.2,0.1,1.3,2.3,1.3h10.1c2.2,0,2.3-0.1,2.3-1.3v-5.2c0-4.6-0.4-4.7-2.4-5l-0.9-0.1
			c-0.3-0.2-0.3-1.1,0.1-1.3c2,0.1,3.9,0.1,5.8,0.1c1.9,0,3.8,0,5.6-0.1c0.3,0.2,0.4,1,0.1,1.3l-0.8,0.1c-2,0.3-2.4,0.4-2.4,5v16.1
			c0,4.6,0.4,4.7,2.4,5l1,0.1c0.3,0.3,0.3,1.1-0.1,1.3c-1.9-0.1-3.8-0.1-5.7-0.1c-2,0-3.9,0-5.8,0.1c-0.4-0.2-0.4-0.9-0.1-1.3
			l0.9-0.1c2-0.3,2.4-0.4,2.4-5v-6.4c0-1.2-0.1-1.2-2.3-1.2H592.1"/>
		<path class="st1" d="M627.4,252.1c0-1.8,0-1.9-1.2-1.9h-2.4c-4,0-5.1,0.5-6.7,4c-0.3,0.3-1.2,0.1-1.4-0.3c0.7-2.3,1.4-5,1.7-6.5
			c0.1-0.1,0.3-0.2,0.5-0.2c0.2,0,0.4,0,0.4,0.2c0.2,1.1,0.8,1.1,3.8,1.1h17.6c2.1,0,2.8-0.1,3.3-1.1c0.2-0.1,0.3-0.2,0.5-0.2
			c0.3,0,0.5,0.1,0.6,0.2c-0.4,1.8-0.8,5.5-0.6,6.9c-0.2,0.3-0.9,0.4-1.3,0.1c-0.6-3.4-1.4-4.2-6-4.2h-2.5c-1.1,0-1.2,0.1-1.2,1.9
			v18.7c0,4.6,0.4,4.7,2.4,4.9l1.6,0.2c0.3,0.3,0.3,1.1-0.1,1.3c-2.5-0.1-4.4-0.1-6.3-0.1c-1.9,0-3.9,0-6.7,0.1
			c-0.3-0.2-0.4-1-0.1-1.3l1.8-0.2c2-0.2,2.4-0.3,2.4-4.9V252.1"/>
		<path class="st1" d="M672.1,248.4c2.8,0,5.2,0,6.1-0.1c0,1,0,4.2,0.1,6.2c-0.2,0.3-0.9,0.4-1.4,0.2c-0.4-2.5-1.1-3.8-2.8-4.2
			c-1.2-0.3-2.2-0.4-3.6-0.4h-2.2c-1.8,0-1.8,0.1-1.8,2.5v7.7c0,1.1,0,1.2,1,1.2h2.5c3.8,0,4.4-0.1,4.8-1.9l0.4-1.5
			c0.3-0.3,1.1-0.3,1.3,0.1c0,1.1-0.1,2.7-0.1,4.3c0,1.6,0.1,3.2,0.1,4.5c-0.2,0.3-1,0.3-1.3,0l-0.4-1.7c-0.4-1.8-1.1-1.9-4.8-1.9
			h-2.5c-1,0-1,0.1-1,1.2v6.1c0,4.6,0.4,4.7,2.4,4.9l1.8,0.2c0.3,0.3,0.3,1.1-0.1,1.3c-2.8-0.1-4.7-0.1-6.6-0.1
			c-1.9,0-3.8,0-5.8,0.1c-0.3-0.2-0.4-0.9-0.1-1.3l1-0.1c2-0.3,2.4-0.4,2.4-5v-16.1c0-4.6-0.4-4.7-2.4-5l-0.6-0.1
			c-0.3-0.3-0.3-1.1,0.1-1.3c1.5,0.1,3.5,0.1,5.4,0.1H672.1"/>
		<path class="st1" d="M688,261.8c0,6,2.5,14.1,9.9,14.1c4.9,0,8.9-3.7,8.9-12.4c0-6.5-2.9-14.1-9.8-14.1
			C692.7,249.5,688,252.6,688,261.8 M712.7,262.8c0,8.5-6.5,14.9-15.2,14.9c-9.8,0-15.4-6.9-15.4-14.6c0-8.8,6.4-15.4,15.4-15.4
			C707.6,247.7,712.7,254.9,712.7,262.8"/>
		<path class="st1" d="M718.7,254.7c0-4.6-0.4-4.7-2.4-5l-0.7-0.1c-0.3-0.3-0.3-1,0.1-1.2c1.7,0.1,3.7,0.1,5.6,0.1
			c1.9,0,3.9,0,5.8-0.1c0.3,0.2,0.4,0.9,0.1,1.2l-0.9,0.1c-2,0.3-2.4,0.4-2.4,5v9.9c0,6,1.8,11,7.8,11c5.7,0,8-4.3,8-10.9v-5.4
			c0-3.2,0-7.3-0.8-8.5c-0.4-0.6-1.1-0.9-2.2-1.1l-0.9-0.1c-0.4-0.3-0.3-1.1,0.1-1.2c1.5,0.1,3.1,0.1,4.8,0.1c1.8,0,3,0,4.6-0.1
			c0.3,0.2,0.4,0.9,0.1,1.2l-1,0.2c-0.8,0.2-1.6,0.3-1.9,1c-0.6,1.3-0.6,5.1-0.6,8.5v5.1c0,3.9-0.6,7.6-2.8,10
			c-2.2,2.4-5.5,3.2-8.5,3.2c-4.1,0-6.9-0.9-8.9-2.8c-1.9-1.9-2.8-4.9-2.8-9.3V254.7"/>
		<path class="st1" d="M776.4,269.6c0,1.3,0,6.6,0.1,7.6c-0.4,0.5-1,0.6-1.5,0.6c-0.7-0.9-1.9-2.4-5.1-5.9l-10.1-11.5
			c-2.8-3.2-4.2-4.8-4.9-5.5c-0.1,0-0.1,0.5-0.1,2.8v8.4c0,3.2,0,7.2,0.8,8.5c0.4,0.6,1.1,0.9,2.2,1.1l1,0.1
			c0.4,0.3,0.3,1.1-0.1,1.3c-1.6-0.1-3.3-0.1-4.9-0.1c-1.8,0-3,0-4.5,0.1c-0.3-0.2-0.4-1-0.1-1.3l1-0.2c0.8-0.1,1.6-0.3,1.9-1
			c0.6-1.3,0.6-5.1,0.6-8.5v-10.3c0-3.4,0-4.1-1.4-5.3c-0.5-0.4-1.7-0.7-2.3-0.9l-0.6-0.1c-0.3-0.3-0.3-1.1,0.2-1.3
			c1.6,0.2,4,0.1,5.1,0.1c0.9,0,1.9,0,3-0.1c0.7,1.9,5.4,7.3,7,9l4.3,4.7c1.8,2,5.8,6.6,6.3,6.8c0.1-0.1,0.1-0.4,0.1-1v-8.4
			c0-3.2,0-7.2-0.8-8.5c-0.4-0.7-1.1-0.9-2.2-1.1l-1-0.1c-0.4-0.3-0.3-1.1,0.1-1.3c1.7,0.1,3.3,0.1,5,0.1c1.9,0,3,0,4.5-0.1
			c0.3,0.2,0.4,1,0.1,1.3l-1,0.2c-0.8,0.1-1.6,0.3-1.9,1c-0.6,1.3-0.6,5.1-0.6,8.5V269.6"/>
		<path class="st1" d="M792.9,269.1c0,4.2,0.3,6.4,4.9,6.4c7.7,0,11.1-5.5,11.1-12.8c0-8.6-5-12.7-12.2-12.7c-1.8,0-3.2,0.4-3.5,0.6
			c-0.3,0.3-0.3,1.2-0.3,3.2V269.1 M787.9,254.9c0-4.1,0-4.7-2.1-4.9l-0.9-0.1c-0.3-0.2-0.3-1,0-1.2c3.1-0.3,6.6-0.4,10.8-0.4
			c4.1,0,7,0.3,10.2,1.5c5.2,1.9,8.8,6.5,8.8,12.9c0,4.8-2.4,9.7-7.7,12.5c-3.1,1.6-6.8,2.1-10.7,2.1c-1.3,0-2.5-0.1-3.5-0.1
			c-1-0.1-1.9-0.1-2.8-0.1c-1.6,0-3.6,0-5.5,0.1c-0.3-0.2-0.4-0.9-0.1-1.3l0.9-0.1c2-0.3,2.4-0.4,2.4-5V254.9z"/>
		<path class="st1" d="M830,264.4c1.2,0,1.4-0.1,1-1.1l-1.8-5.2c-0.7-2.3-1-3.1-1.2-3.4h-0.1c-0.2,0.3-0.5,1.4-1.3,3.4l-1.8,5.1
			c-0.5,1.3-0.3,1.3,0.7,1.3H830 M824.8,266.4c-1.1,0-1.1,0-1.5,1.2l-1.8,5.2c-0.9,2.6-0.7,2.7,0.9,2.9l1.3,0.2
			c0.3,0.3,0.3,1.1-0.1,1.3c-1.4-0.1-2.8-0.1-4.6-0.1c-1.4,0-2.8,0-4.3,0.1c-0.3-0.2-0.3-0.9,0-1.3l1.3-0.2c1.2-0.2,1.7-0.6,2.4-2
			c0.5-1.1,1.2-2.9,2.1-5.3l5.9-15.4c0.6-1.4,1-2.4,0.8-3.2c1.5-0.3,2.9-2.1,3-2.1c0.3,0,0.6,0.1,0.7,0.3c0.7,1.9,1.2,4,1.9,5.9
			l6.2,18.1c1,2.9,1.2,3.2,3.4,3.6l0.6,0.1c0.3,0.3,0.3,1,0,1.3c-1.8-0.1-3.4-0.1-5.6-0.1c-1.9,0-3.8,0.1-5.3,0.1
			c-0.3-0.2-0.4-1-0.1-1.3l1-0.1c1.6-0.2,1.7-0.4,1.1-2.3l-2-5.9c-0.4-1.2-0.6-1.2-1.8-1.2H824.8z"/>
		<path class="st1" d="M853.4,252.1c0-1.8,0-1.9-1.2-1.9h-2.4c-4,0-5.1,0.5-6.7,4c-0.3,0.3-1.2,0.1-1.4-0.3c0.7-2.3,1.4-5,1.7-6.5
			c0.1-0.1,0.3-0.2,0.5-0.2c0.2,0,0.3,0,0.4,0.2c0.2,1.1,0.8,1.1,3.8,1.1h17.6c2.1,0,2.8-0.1,3.3-1.1c0.2-0.1,0.3-0.2,0.5-0.2
			c0.3,0,0.5,0.1,0.6,0.2c-0.4,1.8-0.8,5.5-0.6,6.9c-0.2,0.3-1,0.4-1.3,0.1c-0.6-3.4-1.4-4.2-6-4.2h-2.5c-1.1,0-1.2,0.1-1.2,1.9
			v18.7c0,4.6,0.4,4.7,2.4,4.9l1.6,0.2c0.3,0.3,0.3,1.1-0.1,1.3c-2.5-0.1-4.4-0.1-6.4-0.1c-1.9,0-3.9,0-6.7,0.1
			c-0.3-0.2-0.4-1-0.1-1.3l1.8-0.2c2-0.2,2.4-0.3,2.4-4.9V252.1"/>
		<path class="st1" d="M882.2,270.8c0,4.6,0.4,4.7,2.4,5l1,0.1c0.3,0.3,0.3,1.1-0.1,1.3c-1.9-0.1-3.8-0.1-5.7-0.1
			c-1.9,0-3.9,0-5.8,0.1c-0.3-0.2-0.4-0.9-0.1-1.3l0.9-0.1c2-0.3,2.4-0.4,2.4-5v-16.1c0-4.6-0.4-4.7-2.4-5l-0.9-0.1
			c-0.3-0.3-0.3-1.1,0.1-1.3c1.9,0.1,3.8,0.1,5.8,0.1c1.9,0,3.8,0,5.7-0.1c0.3,0.2,0.4,1,0.1,1.3l-1,0.1c-2,0.3-2.4,0.4-2.4,5V270.8
			"/>
		<path class="st1" d="M895.4,261.8c0,6,2.5,14.1,9.9,14.1c4.9,0,8.9-3.7,8.9-12.4c0-6.5-2.9-14.1-9.8-14.1
			C900.1,249.5,895.4,252.6,895.4,261.8 M920.1,262.8c0,8.5-6.5,14.9-15.2,14.9c-9.8,0-15.4-6.9-15.4-14.6c0-8.8,6.4-15.4,15.4-15.4
			C915,247.7,920.1,254.9,920.1,262.8"/>
		<path class="st1" d="M951.2,269.6c0,1.3,0,6.6,0.1,7.6c-0.4,0.5-1,0.6-1.5,0.6c-0.7-0.9-1.9-2.4-5-5.9l-10.1-11.5
			c-2.8-3.2-4.2-4.8-4.9-5.5c-0.1,0-0.1,0.5-0.1,2.8v8.4c0,3.2,0.1,7.2,0.8,8.5c0.4,0.6,1.1,0.9,2.2,1.1l1,0.1
			c0.4,0.3,0.3,1.1-0.1,1.3c-1.6-0.1-3.3-0.1-4.9-0.1c-1.8,0-3,0-4.5,0.1c-0.3-0.2-0.4-1-0.1-1.3l0.9-0.2c0.8-0.1,1.6-0.3,1.9-1
			c0.6-1.3,0.6-5.1,0.6-8.5v-10.3c0-3.4,0-4.1-1.4-5.3c-0.5-0.4-1.7-0.7-2.3-0.9l-0.6-0.1c-0.3-0.3-0.3-1.1,0.2-1.3
			c1.6,0.2,4,0.1,5.1,0.1c0.9,0,1.9,0,3-0.1c0.7,1.9,5.4,7.3,7,9l4.3,4.7c1.8,2,5.8,6.6,6.3,6.8c0.1-0.1,0.1-0.4,0.1-1v-8.4
			c0-3.2,0-7.2-0.8-8.5c-0.4-0.7-1.1-0.9-2.2-1.1l-1-0.1c-0.4-0.3-0.3-1.1,0.1-1.3c1.7,0.1,3.3,0.1,5,0.1c1.9,0,3,0,4.5-0.1
			c0.3,0.2,0.4,1,0.1,1.3l-1,0.2c-0.8,0.1-1.6,0.3-1.9,1c-0.6,1.3-0.6,5.1-0.6,8.5V269.6"/>
		<rect x="273.6" y="220.9" class="st2" width="711.2" height="83.1"/>
	</g>
	<g>
		<path class="st3" d="M43.1,134.3c-0.3,0-0.6,0.1-0.8,0.2l-0.1,0.1l0,0.1c-1.2,3-4.2,7.9-11.6,7.9c-9.9,0-16.6-7.3-16.6-18.2
			c0-12.5,8.1-17,15.8-17c6.4,0,10.1,2.6,11.3,8l0,0.1l0.1,0.1c0.6,0.5,1.8,0.4,2.2-0.2l0.1-0.1l0-0.2c-0.4-3.3-0.7-7-0.8-8.4l0-0.5
			l-0.5,0.1c-0.4,0-0.7,0-1.3-0.2l-0.1,0c-2.9-0.8-7.3-1.4-10.2-1.4c-6.1,0-11.6,1.7-15.7,5c-4.7,3.6-7.4,9.3-7.4,15.5
			c0,6.7,3,12.4,8.3,16.1c3.9,2.6,8.7,3.9,14.5,3.9c3.7,0,7.9-0.9,9.2-1.3c0.6-0.2,1.3-0.4,1.9-0.6l0.2,0l0.1-0.1
			c1-1.2,2.4-5.1,2.8-8.1l0-0.1l-0.1-0.1C44.2,134.5,43.6,134.3,43.1,134.3z"/>
		<path class="st3" d="M69.1,104.8c-11.9,0-20.8,8.9-20.8,20.6c0,9.9,7.1,19.8,20.8,19.8c11.6,0,20.3-8.8,20.3-20.4
			C89.3,115.3,83,104.8,69.1,104.8z M69.8,142.7c-11.8,0-15-12-15-19c0-11.9,7.1-16.2,13.3-16.2c10.8,0,14.7,10.3,14.7,19.2
			C82.8,138.5,75.8,142.7,69.8,142.7z"/>
		<path class="st3" d="M120.4,135.2c-0.2,0-0.5,0-0.8,0.2l-0.1,0.2c-1.2,3.2-2.7,4.9-3.6,5.4c-0.9,0.5-2,0.7-6.8,0.7
			c-4.2,0-5.3-0.6-5.9-1.2c-0.9-1-1.1-2.4-1.1-5.9v-19.9c0-6.2,0.2-6.5,3.1-6.8l1.4-0.1l0.2-0.1c0.3-0.2,0.4-0.6,0.4-1.1
			c0-0.2-0.1-0.9-0.6-1.1l-0.1-0.1l-0.1,0c-2.7,0.1-4.7,0.2-7,0.2c-2.3,0-4.2-0.1-7.4-0.2l-0.1,0l-0.1,0c-0.5,0.2-0.5,0.9-0.6,1.1
			c0,0.5,0.1,0.9,0.4,1.1l1.6,0.2c3.1,0.2,3.3,0.6,3.3,6.8v20.6c0,6.1-0.1,6.4-3,6.7l-1.9,0.2l-0.1,0.1c-0.3,0.3-0.4,0.9-0.3,1.2
			c0.1,0.4,0.3,0.7,0.5,0.9l0.1,0.1l0.1,0c3.3-0.1,5.1-0.2,7.4-0.2h5.3c6.3,0,11.4,0.1,14.2,0.2l0.3,0l0.1-0.2
			c0.8-1.5,2.5-7.5,2.5-8.2C121.8,135.5,120.9,135.2,120.4,135.2z"/>
		<path class="st3" d="M153.4,135.2c-0.2,0-0.5,0-0.8,0.2l-0.1,0.2c-1.2,3.2-2.7,4.9-3.6,5.4c-0.9,0.5-2,0.7-6.8,0.7
			c-4.2,0-5.3-0.6-5.9-1.2c-0.9-1-1.1-2.4-1.1-5.9v-19.9c0-6.2,0.2-6.5,3.1-6.8l1.4-0.1l0.2-0.1c0.3-0.2,0.4-0.6,0.4-1.1
			c0-0.2-0.1-0.9-0.6-1.1l-0.1-0.1l-0.1,0c-2.7,0.1-4.7,0.2-7,0.2c-2.3,0-4.2-0.1-7.4-0.2l-0.1,0l-0.1,0c-0.5,0.2-0.5,0.9-0.6,1.1
			c0,0.5,0.1,0.9,0.4,1.1l1.6,0.2c3.1,0.2,3.3,0.6,3.3,6.8v20.6c0,6.1-0.1,6.4-3,6.7l-1.9,0.2l-0.1,0.1c-0.3,0.3-0.4,0.9-0.3,1.2
			c0.1,0.4,0.3,0.7,0.5,0.9l0.1,0.1l0.1,0c3.3-0.1,5.1-0.2,7.4-0.2h5.3c6.3,0,11.4,0.1,14.2,0.2l0.3,0l0.1-0.2
			c0.8-1.5,2.5-7.5,2.5-8.2C154.8,135.5,154,135.2,153.4,135.2z"/>
		<path class="st3" d="M193.9,142.3l-1.7-0.2c-2.2-0.3-2.8-0.8-4.5-5.8l-8.2-23.9c-0.8-2.2-1.6-4.5-2.2-6.8
			c-0.2-0.5-0.6-0.8-1.3-0.8h-0.2l-0.1,0.2c-0.6,0.8-1.5,1.7-2.8,2l-0.4,0.1l0.1,0.4c0.2,0.8-0.2,1.8-1,3.8l-5.8,15.5
			c-1.7,4.4-3,7.6-3.9,10c-0.4,1.1-0.8,2-1.1,2.8c-0.8,2.1-2.1,2.4-3.1,2.5l-2,0.2l-0.1,0.1c-0.3,0.2-0.4,0.6-0.4,1
			c0,0.4,0.2,0.9,0.5,1.1l0.1,0.1l1.3-0.1c1.3-0.1,2.8-0.1,4.3-0.1l1.9,0c1.7,0,2.9,0.1,4,0.1l0.1,0l0.1,0c0.4-0.2,0.6-0.5,0.6-1
			c0-0.5-0.1-1-0.5-1.2l-0.1-0.1l-2-0.2c-1.3-0.1-1.3-0.4-1.3-0.7c0-0.4,0.2-1.5,1.2-4.6l2-6c0.3-1,0.4-1.1,1.8-1.1h8.6
			c1.6,0,1.6,0.1,1.9,1.1l2.5,7.8c0.3,1,0.7,2.2,0.7,2.9c0,0.2-0.4,0.5-1.6,0.6l-1.8,0.2l-0.1,0.1c-0.3,0.2-0.5,0.7-0.4,1.1
			c0,0.5,0.3,0.9,0.6,1l0.1,0.1l1.2,0c1.5-0.1,3.3-0.1,5.5-0.1c2.4,0,4.4,0.1,6.9,0.2l0.2,0l0.1-0.1c0.3-0.3,0.4-0.8,0.4-1.2
			C194.4,142.9,194.3,142.6,193.9,142.3L193.9,142.3z M178.5,126.4c0,0-0.2,0.1-1.1,0.1h-7c-0.4,0-1,0-1,0c0-0.1,0.1-0.6,0.2-0.8
			l3.6-10c0.4-1.1,0.8-2,1-2.6c0.3,0.8,0.7,1.8,1,2.8l3.1,9.3C178.6,126.1,178.6,126.4,178.5,126.4z"/>
		<path class="st3" d="M218.1,123.1c-0.4-0.1-0.5-0.1-0.6-0.2c2.9-1.4,5.7-3.5,5.7-8.1c0-3.4-1.6-6.1-4.6-7.5
			c-2.9-1.5-6.7-1.7-9.8-1.7c-5,0-9,0.1-12.3,0.5l-0.2,0c-0.3,0.2-0.6,0.5-0.6,1c0,0.5,0.1,0.9,0.5,1.2l0.1,0.1l2,0.2
			c2.1,0.2,2.4,0.8,2.4,5.1v21.8c0,6-0.1,6.3-2.8,6.7l-1.2,0.2l-0.1,0.1c-0.3,0.3-0.4,0.9-0.3,1.2c0.1,0.4,0.3,0.7,0.5,0.9l0.1,0
			l0.1,0c0.7,0,1.3,0,2-0.1c1.4-0.1,2.9-0.1,4.6-0.1c1.3,0,2.8,0.1,4,0.1c1.1,0,2.1,0.1,2.8,0.1c10,0,15.7-4.2,15.7-11.5
			C226.1,126.3,220.9,123.6,218.1,123.1z M206.2,126.1c0-0.8,0-1.1,2.9-1.1c9.5,0,11,5.9,11,9.4c0,6.6-5.4,7.6-8.6,7.6
			c-2.1,0-3.4-0.4-4.2-1.5c-1-1.1-1.1-3.9-1.1-6V126.1z M208.7,122.4c-0.5,0-0.9,0-1.2,0c-1.3,0-1.3,0-1.3-1.2v-11.6
			c0-0.9,0.2-1,0.5-1.1c0.5-0.2,1.3-0.3,2.5-0.3c1.9,0,8.1,0.5,8.1,7.3C217.3,120.2,214.9,122.2,208.7,122.4z"/>
		<path class="st3" d="M250.7,104.8c-11.9,0-20.8,8.9-20.8,20.6c0,9.9,7.1,19.8,20.8,19.8c11.6,0,20.3-8.8,20.3-20.4
			C270.9,115.3,264.6,104.8,250.7,104.8z M251.4,142.7c-11.8,0-15-12-15-19c0-11.9,7.1-16.2,13.3-16.2c10.8,0,14.7,10.3,14.7,19.2
			C264.4,138.5,257.4,142.7,251.4,142.7z"/>
		<path class="st3" d="M347,142.3l-1.7-0.2c-2.2-0.3-2.8-0.8-4.5-5.8l-8.2-23.9c-0.8-2.2-1.6-4.5-2.2-6.8c-0.2-0.5-0.6-0.8-1.3-0.8
			h-0.2l-0.1,0.2c-0.6,0.8-1.5,1.7-2.8,2l-0.4,0.1l0.1,0.4c0.2,0.8-0.2,1.8-1,3.8l-5.8,15.5c-1.7,4.4-3,7.6-3.9,10
			c-0.4,1.1-0.8,2-1.1,2.8c-0.8,2.1-2.1,2.4-3.1,2.5l-1.4,0.1l0,0c-1.4-0.1-2.8,0.2-3.8-0.7c-3.9-3.3-7.1-8.1-11.4-15.1
			c-0.3-0.5-0.3-0.7-0.3-0.8c1.9-0.8,7.3-3.6,7.3-9.9c0-4.8-2.7-7.2-5-8.4c-2.9-1.6-6.5-1.8-9.8-1.8c-5.2,0-9.3,0.1-12.8,0.5l-0.2,0
			c-0.3,0.2-0.5,0.5-0.6,1c0,0.5,0.1,1,0.5,1.2l2,0.3c1.9,0.2,2.1,0.6,2.1,6.3v20.6c0,6.1-0.1,6.4-3.1,6.7l-1.6,0.2l-0.1,0.1
			c-0.3,0.4-0.4,0.9-0.3,1.3c0.1,0.4,0.3,0.7,0.5,0.8l0.1,0.1l0.1,0c2.9-0.1,4.9-0.2,7.1-0.2c2.4,0,4.5,0.1,6.8,0.2l0.1,0l0.1-0.1
			c0.4-0.2,0.5-0.8,0.5-1c0.1-0.5-0.1-0.9-0.4-1.2l-0.1-0.1l-1.3-0.2c-2.9-0.4-3.1-0.7-3.1-6.7v-7.2c0-0.8,0-0.8,2.3-0.8
			c2.2,0,3,0.5,3.7,1.6c0.9,1.3,1.9,2.9,2.9,4.4c1,1.6,2,3.1,2.7,4.2c3.9,5.6,7,7.1,12.4,7.1c0.8,0,1.4-0.1,2-0.2l0,0l1.4-0.1
			c1.3-0.1,2.8-0.1,4.3-0.1l1.9,0c1.7,0,2.9,0.1,4,0.1l0.1,0l0.1,0c0.4-0.2,0.6-0.5,0.6-1c0.1-0.5-0.1-1-0.5-1.2l-0.1-0.1l-2-0.2
			c-1.3-0.1-1.3-0.4-1.3-0.7c0-0.4,0.2-1.5,1.2-4.6l2-6c0.3-1,0.4-1.1,1.8-1.1h8.6c1.6,0,1.6,0.1,1.9,1.1l2.5,7.8
			c0.3,1,0.7,2.2,0.7,2.9c0,0.2-0.4,0.5-1.6,0.6l-1.8,0.2l-0.1,0.1c-0.3,0.2-0.5,0.7-0.4,1.1c0,0.5,0.3,0.9,0.6,1l0.1,0.1l1.2,0
			c1.5-0.1,3.3-0.1,5.5-0.1c2.4,0,4.4,0.1,6.9,0.2l0.2,0l0.1-0.1c0.3-0.3,0.4-0.8,0.4-1.2C347.6,142.9,347.4,142.6,347,142.3
			L347,142.3z M331.7,126.4c0,0-0.2,0.1-1.1,0.1h-7c-0.4,0-1,0-1,0c0-0.1,0.1-0.6,0.2-0.8l3.6-10c0.4-1.1,0.8-2,1-2.6
			c0.3,0.8,0.7,1.8,1,2.8l3.1,9.3C331.7,126.1,331.7,126.4,331.7,126.4z M283.2,109.6c0-1.3,0-1.4,3.3-1.4c6.4,0,8.7,4.5,8.7,8.4
			c0,3.1-0.9,5.3-2.7,6.8c-1.6,1.2-3.9,1.4-5.6,1.4c-2.6,0-3.4-0.1-3.6-0.2c-0.1-0.2-0.1-0.9-0.1-1.6V109.6z"/>
		<path class="st3" d="M377.6,104.1c-0.1,0-0.3,0-0.5,0.1l-0.1,0.1l-0.1,0.1c-0.7,1.3-1,1.4-4.1,1.4h-23.6c-2.6,0-3.7-0.1-4-1.4
			l0-0.1l-0.1-0.1c-0.2-0.2-0.4-0.2-0.8-0.2c-0.1,0-0.6,0-0.8,0.2l-0.2,0.1l0,0.2c-0.4,2.3-1.2,5.9-2.2,8.5l-0.1,0.2l0.1,0.2
			c0.3,0.7,1.5,1,2.1,0.6l0.1-0.2c0.6-1.3,1.1-2.6,2.5-3.8c1.3-1.2,4.1-1.3,6.7-1.3h3.2c1.3,0,1.3,0,1.3,1.4v25.6
			c0,6.2-0.4,6.5-3.2,6.7l-2.1,0.2l-0.2,0.1c-0.3,0.2-0.5,0.6-0.5,1.1c0,0.4,0.2,0.9,0.5,1l0.1,0.1l0.1,0c3.5-0.1,5.6-0.2,7.9-0.2
			c2.2,0,4.1,0.1,7.5,0.2l0.1,0l0.1-0.1c0.4-0.2,0.5-0.7,0.6-1.1c0-0.5-0.1-0.9-0.4-1.1l-2-0.2c-2.9-0.2-3-0.6-3-6.7v-25.7
			c0-0.6,0-1.1,0.1-1.2c0.1-0.1,0.7-0.1,1.1-0.1h4.1c3.1,0,5.2,0.4,6.4,1.3c0.5,0.4,1,1.9,1.3,3.9l0,0.1l0.1,0.1
			c0.2,0.3,0.6,0.4,1,0.4c0.5,0,1-0.2,1.2-0.6l0.1-0.1l0-0.1c-0.2-1.6,0.2-6.3,0.8-8.5l0-0.2l-0.1-0.1
			C378.4,104.1,377.7,104.1,377.6,104.1z"/>
		<path class="st3" d="M394,142.1c-3-0.4-3.1-0.7-3.1-6.8v-20.4c0-6.2,0.2-6.7,3.1-6.9l1.5-0.1l0.1-0.1c0.3-0.2,0.4-0.6,0.4-1.1
			c0-0.2-0.1-0.9-0.6-1.1l-0.1,0l-0.1,0c-2.7,0.1-4.7,0.2-7.1,0.2c-2.5,0-4.4-0.1-7.2-0.2l-0.1,0l-0.1,0c-0.5,0.2-0.5,0.9-0.6,1.1
			c0,0.5,0.1,0.9,0.4,1.1l0.1,0.1l1.5,0.1c2.9,0.2,3.1,0.7,3.1,6.9v20.4c0,6.2-0.1,6.5-3.1,6.8l-1.6,0.2l-0.1,0.1
			c-0.3,0.3-0.4,0.9-0.3,1.2c0.1,0.4,0.3,0.7,0.5,0.9l0.1,0.1l0.1,0c2.8-0.1,4.8-0.2,7.2-0.2c2.3,0,4.3,0.1,7.1,0.2l0.1,0l0.1-0.1
			c0.5-0.2,0.5-0.9,0.6-1.1c0-0.5-0.1-0.9-0.4-1.1L394,142.1z"/>
		<path class="st3" d="M438.7,105.6l-0.1,0c-1.9,0.1-3.7,0.2-5.5,0.2c-2.3,0-4.4-0.1-5.9-0.2l-0.1,0l-0.1,0.1
			c-0.3,0.2-0.5,0.6-0.6,1c0,0.5,0.1,0.9,0.4,1.1l0.1,0.1l1.2,0.1c2,0.2,2.2,0.7,2.2,0.7c0,0.4-0.1,0.9-0.5,2.1
			c-0.9,2.4-3.6,8.8-5.3,12.8c-0.4,0.9-0.9,2.2-1.5,3.5c-1.1,2.6-2.4,5.8-3.6,8.3c-2.7-6.2-5.2-12.5-7.7-18.9
			c-1.7-4.1-2.6-7.1-2.8-7.8c0.1-0.2,0.6-0.4,2.3-0.7l1-0.1l0.1-0.1c0.3-0.2,0.4-0.7,0.4-1.1c0-0.5-0.3-0.8-0.6-1l-0.1-0.1l-0.1,0
			c-2.5,0.1-4.5,0.2-6.9,0.2c-2.4,0-4.2-0.1-5.9-0.2l-0.1,0l-0.1,0.1c-0.3,0.2-0.5,0.6-0.6,1c0,0.4,0.1,0.8,0.4,1.1l0.1,0.1l1.2,0.1
			c2.2,0.3,3,1.3,4.3,4.4l10.1,24.8c0.8,2,1.9,5,2.6,7.6l0.1,0.2l0.2,0.1c0.3,0.1,0.7,0.2,1,0.2c0.3,0,0.6-0.1,0.9-0.2l0.1-0.1
			l0-0.1c1-3.1,3.7-9.9,5.9-14.9l3.1-7c2.7-6.1,4.9-10.5,6.4-13.1c0.7-1.2,1.5-1.7,2.6-1.8l1.9-0.1l0.1-0.1c0.3-0.3,0.4-0.9,0.3-1.2
			c-0.1-0.4-0.2-0.7-0.5-0.9L438.7,105.6z"/>
		<path class="st3" d="M470.1,135.2c-0.3,0-0.5,0.1-0.7,0.2l-0.1,0.2c-1.6,3.3-3.1,4.9-3.9,5.4c-1.2,0.6-3,0.8-7.1,0.8
			c-4.8,0-6-0.6-6.6-1.2c-0.8-0.9-1-2.7-1-5.7v-8.1c0-1.1,0-1.1,1.5-1.1h3.3c2.1,0,3.5,0,4.3,0.3c0.8,0.2,1.2,0.7,1.5,1.9l0.5,2.2
			l0.1,0.2c0.2,0.3,0.6,0.4,1.1,0.4c0.5,0,0.9-0.2,1.1-0.5l0.1-0.1V130c0-0.6,0-1.3-0.1-2.1c-0.1-1-0.1-2.2-0.1-3.4
			c0-1.2,0.1-2.4,0.1-3.5c0.1-0.9,0.1-1.7,0.1-2.3v-0.1l-0.1-0.1c-0.2-0.3-0.6-0.5-1.1-0.5c-0.5,0-0.8,0.2-1.1,0.4l-0.5,2.5
			c-0.3,1.3-0.6,1.5-1.1,1.7c-0.6,0.2-2.3,0.3-4.7,0.3h-3.3c-1.5,0-1.5,0-1.5-1.2v-11.4c0-1.9,0-1.9,1.3-1.9h4.1
			c2.5,0,4.3,0.1,5.5,0.3c2.6,0.7,3.1,2.3,3.9,4.8l0.1,0.3l0.1,0.1c0.2,0.2,0.5,0.4,0.9,0.4c0.4,0,0.9-0.1,1.2-0.5l0.1-0.1l-0.1-0.9
			c-0.3-3.3-0.6-6.1-0.9-6.9l-0.1-0.4l-0.4,0.1c-0.6,0.2-4.2,0.2-7.6,0.2H448c-2.2,0-4.1,0-6.7-0.2l-0.1,0l-0.1,0
			c-0.5,0.2-0.5,0.9-0.6,1.1c0,0.5,0.1,0.9,0.4,1.1l1.1,0.2c2.9,0.3,3.1,0.7,3.1,6.8v20.6c0,6.2-0.4,6.5-3.2,6.7l-2,0.2l-0.1,0.1
			c-0.3,0.3-0.4,0.9-0.3,1.2c0.1,0.4,0.3,0.7,0.5,0.9l0.1,0.1l0.1,0c3.5-0.1,5.4-0.2,7.8-0.2h5.2c5,0,10.2,0.1,15.3,0.2l0.3,0
			l0.1-0.2c0.8-1.6,2.2-6,2.6-8.1l0-0.1l-0.1-0.1C471.2,135.5,470.6,135.2,470.1,135.2z"/>
		<path class="st3" d="M526.6,134.3c-0.3,0-0.6,0.1-0.8,0.2l-0.1,0.1l0,0.1c-1.2,3-4.2,7.9-11.6,7.9c-9.9,0-16.6-7.3-16.6-18.2
			c0-12.5,8.1-17,15.8-17c6.4,0,10.1,2.6,11.3,8l0,0.1l0.1,0.1c0.6,0.5,1.8,0.4,2.2-0.2l0.1-0.1l0-0.2c-0.4-3.3-0.7-7-0.8-8.4l0-0.5
			l-0.5,0.1c-0.4,0-0.7,0-1.3-0.2l-0.1,0c-2.9-0.8-7.3-1.4-10.2-1.4c-6.1,0-11.6,1.7-15.7,5c-4.7,3.6-7.4,9.3-7.4,15.5
			c0,6.7,3,12.4,8.3,16.1c3.9,2.6,8.7,3.9,14.5,3.9c3.7,0,7.9-0.9,9.2-1.3c0.6-0.2,1.3-0.4,1.9-0.6l0.2,0l0.1-0.1
			c1-1.2,2.4-5.1,2.8-8.1l0-0.1l-0.1-0.1C527.7,134.5,527.1,134.3,526.6,134.3z"/>
		<path class="st3" d="M569.2,143.1l-0.1,0c-1.4-0.1-2.7-0.6-3.7-1.5c-3.9-3.3-7.1-8.1-11.4-15.1c-0.3-0.5-0.3-0.7-0.3-0.8
			c1.9-0.8,7.3-3.6,7.3-9.9c0-4.8-2.7-7.2-5-8.4c-2.9-1.6-6.5-1.8-9.8-1.8c-5.2,0-9.3,0.1-12.8,0.5l-0.2,0c-0.3,0.2-0.5,0.5-0.6,1
			c0,0.5,0.1,1,0.5,1.2l2,0.3c1.9,0.2,2.1,0.6,2.1,6.3v20.6c0,6.1-0.1,6.4-3.1,6.7l-1.6,0.2l-0.1,0.1c-0.3,0.4-0.4,0.9-0.3,1.3
			c0.1,0.4,0.3,0.7,0.5,0.8l0.1,0.1l0.1,0c2.9-0.1,4.9-0.2,7.1-0.2c2.4,0,4.5,0.1,6.8,0.2l0.1,0l0.1-0.1c0.4-0.2,0.5-0.8,0.5-1
			c0.1-0.5-0.1-0.9-0.4-1.2l-0.1-0.1l-1.3-0.2c-2.9-0.4-3.1-0.7-3.1-6.7v-7.2c0-0.8,0-0.8,2.3-0.8c2.2,0,3,0.5,3.7,1.6
			c0.9,1.3,1.9,2.9,2.9,4.4c1,1.6,2,3.1,2.7,4.2c3.9,5.6,6.9,7.4,12.2,7.4c1.1,0,2.1-0.1,2.7-0.3l0.1-0.1c0.3-0.2,0.4-0.5,0.3-0.9
			C569.7,143.5,569.5,143.2,569.2,143.1z M542.8,109.6c0-1.3,0-1.4,3.3-1.4c6.4,0,8.7,4.5,8.7,8.4c0,3.1-0.9,5.3-2.7,6.8
			c-1.6,1.2-3.9,1.4-5.6,1.4c-2.6,0-3.4-0.1-3.6-0.2c-0.1-0.2-0.1-0.9-0.1-1.6V109.6z"/>
		<path class="st3" d="M588.7,104.8c-11.9,0-20.8,8.9-20.8,20.6c0,9.9,7.1,19.8,20.8,19.8c11.6,0,20.3-8.8,20.3-20.4
			C609,115.3,602.6,104.8,588.7,104.8z M589.4,142.7c-11.8,0-15-12-15-19c0-11.9,7.1-16.2,13.3-16.2c10.8,0,14.7,10.3,14.7,19.2
			C602.4,138.5,595.4,142.7,589.4,142.7z"/>
		<path class="st3" d="M635.9,107.9c-2.6-1.6-6.1-2.4-11.2-2.4c-5.1,0-8.5,0.1-11.4,0.5l-0.1,0c-0.3,0.2-0.6,0.5-0.6,0.9
			c-0.1,0.5,0.1,0.9,0.4,1.2l0.1,0.1l2.2,0.2c2.1,0.2,2.3,0.7,2.3,5.7v21.1c0,6-0.1,6.3-3.1,6.7l-1.3,0.2l-0.1,0.1
			c-0.3,0.3-0.4,0.9-0.3,1.2c0.1,0.4,0.3,0.7,0.5,0.9l0.1,0.1l0.1,0c2.7-0.1,4.7-0.2,7-0.2c2.3,0,4.1,0.1,7.4,0.2l0.1,0l0.1-0.1
			c0.4-0.2,0.5-0.8,0.5-1c0.1-0.5-0.1-0.9-0.3-1.2l-0.1-0.1l-1.7-0.2c-3.2-0.4-3.4-0.7-3.4-6.7v-25.5c0-1.6,0-1.6,2.7-1.6
			c5.5,0,8.8,3.3,8.8,8.7c0,5.3-2.6,8.2-8.1,9.2c-0.3,0.1-0.5,0.4-0.5,0.9c0,0.5,0.2,0.9,0.6,1.1l0.2,0c2.8,0,5.8-0.7,8.1-1.8
			c2.2-1.1,6-3.8,6-9.5C640.7,113.1,639,109.9,635.9,107.9z"/>
		<path class="st3" d="M730.3,135.2c-0.3,0-0.5,0.1-0.7,0.2l-0.1,0.2c-1.6,3.3-3.1,4.9-3.9,5.4c-1.2,0.6-3,0.8-7.1,0.8
			c-4.8,0-6-0.6-6.6-1.2c-0.8-0.9-1-2.7-1-5.7v-8.1c0-1.1,0-1.1,1.5-1.1h3.3c2.1,0,3.5,0,4.3,0.3c0.8,0.2,1.2,0.7,1.5,1.9l0.5,2.2
			l0.1,0.2c0.2,0.3,0.6,0.4,1.1,0.4c0.5,0,0.9-0.2,1.1-0.5l0.1-0.1V130c0-0.6,0-1.3-0.1-2.1c-0.1-1-0.1-2.2-0.1-3.4
			c0-1.2,0.1-2.4,0.1-3.5c0.1-0.9,0.1-1.7,0.1-2.3v-0.1l-0.1-0.1c-0.2-0.3-0.6-0.5-1.1-0.5c-0.5,0-0.8,0.2-1.1,0.4l-0.5,2.5
			c-0.3,1.3-0.6,1.5-1.1,1.7c-0.6,0.2-2.3,0.3-4.7,0.3h-3.3c-1.5,0-1.5,0-1.5-1.2v-11.4c0-1.9,0-1.9,1.3-1.9h4.1
			c2.5,0,4.3,0.1,5.5,0.3c2.6,0.7,3.1,2.3,3.9,4.8l0.1,0.3l0.1,0.1c0.2,0.2,0.5,0.4,0.9,0.4c0.4,0,0.9-0.1,1.2-0.5l0.1-0.1l-0.1-0.9
			c-0.3-3.3-0.6-6.1-0.9-6.9l-0.1-0.4l-0.4,0.1c-0.6,0.2-4.2,0.2-7.6,0.2h-10.8c-2.2,0-4.1,0-6.7-0.2l-0.1,0l-0.1,0
			c-0.5,0.2-0.5,0.9-0.6,1.1c0,0.5,0.1,0.9,0.4,1.1l1.1,0.2c2.9,0.3,3.1,0.7,3.1,6.8v20.6c0,6.2-0.4,6.5-3.2,6.7l-2,0.2l0,0
			c-1.5,0-4,0.2-5.2-0.7c-4-3.3-7.1-8.1-11.4-15.1c-0.3-0.5-0.3-0.7-0.3-0.8c1.9-0.8,7.3-3.6,7.3-9.9c0-4.8-2.7-7.2-5-8.4
			c-2.9-1.6-6.5-1.8-9.8-1.8c-5.2,0-9.3,0.1-12.8,0.5l-0.2,0c-0.3,0.2-0.5,0.5-0.6,1c0,0.5,0.1,1,0.5,1.2l2,0.3
			c1.9,0.2,2.1,0.6,2.1,6.3v20.6c0,6.1-0.1,6.4-3.1,6.7l-1.6,0.2l-0.1,0.1c-0.3,0.4-0.4,0.9-0.3,1.3c0.1,0.4,0.3,0.7,0.5,0.8
			l0.1,0.1l0.1,0c2.9-0.1,4.9-0.2,7.1-0.2c2.4,0,4.5,0.1,6.8,0.2l0.1,0l0.1-0.1c0.4-0.2,0.5-0.8,0.5-1c0.1-0.5-0.1-0.9-0.4-1.2
			l-0.1-0.1l-1.3-0.2c-2.9-0.4-3.1-0.7-3.1-6.7v-7.2c0-0.8,0-0.8,2.3-0.8c2.2,0,3,0.5,3.7,1.6c0.9,1.3,1.9,2.9,2.9,4.4
			c1,1.6,2,3.1,2.7,4.2c3.9,5.6,6.9,7.4,12.2,7.4c1.1,0,4-0.3,4.6-0.5l0,0c3.3-0.1,5.2-0.2,7.6-0.2h5.2c5,0,10.2,0.1,15.3,0.2l0.3,0
			l0.1-0.2c0.8-1.6,2.2-6,2.6-8.1l0-0.1l-0.1-0.1C731.3,135.5,730.7,135.2,730.3,135.2z M672.2,109.6c0-1.3,0-1.4,3.3-1.4
			c6.4,0,8.7,4.5,8.7,8.4c0,3.1-0.9,5.3-2.7,6.8c-1.6,1.2-3.9,1.4-5.6,1.4c-2.6,0-3.4-0.1-3.6-0.2c-0.1-0.2-0.1-0.9-0.1-1.6V109.6z"
			/>
		<path class="st3" d="M750.4,122.9l-4.6-2.9c-1.7-1.1-4.7-3.4-4.7-6.7c0-2.2,0.8-5.9,6.4-5.9c5.1,0,6.6,3.3,7.4,6.2l0.1,0.2
			c0.2,0.2,0.5,0.3,0.9,0.3c0.4,0,1-0.2,1.3-0.6l0.1-0.1v-0.1c0-2.3-0.5-5.6-1.1-7.1l-0.1-0.3h-0.3c-0.4,0-1.2-0.1-1.9-0.3
			c-1.4-0.4-3.5-0.8-5.4-0.8c-7.2,0-12.1,4.1-12.1,10.3c0,5,3.5,8.3,6.4,10.2l5.4,3.6c4,2.5,4.5,5.2,4.5,7.7c0,3.1-2.1,6.2-6.7,6.2
			c-5.8,0-8.3-4.5-9.4-8.2l-0.1-0.1c-0.2-0.3-0.5-0.4-0.9-0.4c-0.4,0-0.9,0.1-1.2,0.6l-0.1,0.1l0,0.1c0.1,2.6,0.8,6.8,1.6,8.2
			l0.1,0.1l0.1,0.1c1.1,0.7,4.3,2.2,9.1,2.2c7.6,0,12.6-4.4,12.6-11C757.8,129.7,755.3,126,750.4,122.9z"/>
		<path class="st3" d="M792.5,136.1l-0.1-0.1c-0.2-0.6-0.8-0.8-1.3-0.8c-0.3,0-0.5,0.1-0.7,0.2l-0.1,0.2c-1.6,3.3-3.1,4.9-3.9,5.4
			c-1.2,0.6-3,0.8-7.1,0.8c-4.8,0-6-0.6-6.6-1.2c-0.8-0.9-1-2.7-1-5.7v-8.1c0-1.1,0-1.1,1.5-1.1h3.3c2.1,0,3.5,0,4.3,0.3
			c0.8,0.2,1.2,0.7,1.5,1.9l0.5,2.2l0.1,0.2c0.2,0.3,0.6,0.4,1.1,0.4c0.5,0,0.9-0.2,1.1-0.5l0.1-0.1V130c0-0.6,0-1.3-0.1-2.1
			c-0.1-1-0.1-2.2-0.1-3.4c0-1.2,0.1-2.4,0.1-3.5c0.1-0.9,0.1-1.7,0.1-2.3v-0.1l-0.1-0.1c-0.2-0.3-0.6-0.5-1.1-0.5
			c-0.5,0-0.9,0.2-1.1,0.4l-0.5,2.5c-0.3,1.3-0.6,1.5-1.1,1.7c-0.6,0.2-2.3,0.3-4.7,0.3h-3.3c-1.5,0-1.5,0-1.5-1.2v-11.4
			c0-1.9,0-1.9,1.3-1.9h4.1c2.5,0,4.3,0.1,5.4,0.3c2.6,0.7,3.1,2.3,3.9,4.8l0.1,0.3l0.1,0.1c0.2,0.2,0.5,0.4,0.9,0.4
			c0.4,0,0.9-0.1,1.2-0.5l0.1-0.1l-0.1-0.9c-0.3-3.3-0.6-6.1-0.9-6.9l-0.1-0.4l-0.4,0.1c-0.6,0.2-4.2,0.2-7.6,0.2h-10.8
			c-2.2,0-4.1,0-6.7-0.2l-0.1,0l-0.1,0c-0.5,0.2-0.5,0.9-0.6,1.1c0,0.5,0.1,0.9,0.4,1.1l1.1,0.2c2.9,0.3,3.1,0.7,3.1,6.8v20.6
			c0,6.2-0.4,6.5-3.2,6.7l-2,0.2l-0.1,0.1c-0.3,0.3-0.4,0.9-0.3,1.2c0.1,0.4,0.3,0.7,0.5,0.9l0.1,0.1l0.1,0c3.5-0.1,5.4-0.2,7.8-0.2
			h5.2c5,0,10.2,0.1,15.3,0.2l0.3,0l0.1-0.2c0.8-1.6,2.2-6,2.6-8.1L792.5,136.1z"/>
		<path class="st3" d="M830.9,142.3l-1.7-0.2c-2.2-0.3-2.8-0.8-4.5-5.8l-8.2-23.9c-0.8-2.2-1.6-4.5-2.2-6.8
			c-0.2-0.5-0.6-0.8-1.3-0.8h-0.2l-0.1,0.2c-0.6,0.8-1.5,1.7-2.8,2l-0.4,0.1l0.1,0.4c0.2,0.8-0.2,1.8-1,3.8l-5.8,15.5
			c-1.7,4.4-3,7.6-3.9,10c-0.4,1.1-0.8,2-1.1,2.8c-0.8,2.1-2.1,2.4-3.1,2.5l-2,0.2l-0.1,0.1c-0.3,0.2-0.4,0.6-0.4,1
			c0,0.4,0.2,0.9,0.5,1.1l0.1,0.1l1.4-0.1c1.3-0.1,2.8-0.1,4.3-0.1l1.9,0c1.7,0,2.9,0.1,4,0.1l0.1,0l0.1,0c0.4-0.2,0.6-0.5,0.6-1
			c0.1-0.5-0.1-1-0.5-1.2l-0.1-0.1l-2-0.2c-1.3-0.1-1.3-0.4-1.3-0.7c0-0.4,0.2-1.5,1.2-4.6l2-6c0.3-1,0.4-1.1,1.8-1.1h8.6
			c1.6,0,1.6,0.1,1.9,1.1l2.5,7.8c0.3,1,0.7,2.2,0.7,2.9c0,0.2-0.4,0.5-1.6,0.6l-1.8,0.2l-0.1,0.1c-0.3,0.2-0.5,0.7-0.4,1.1
			c0,0.5,0.3,0.9,0.6,1l0.1,0.1l1.2,0c1.5-0.1,3.3-0.1,5.5-0.1c2.4,0,4.4,0.1,6.9,0.2l0.2,0l0.1-0.1c0.3-0.3,0.4-0.8,0.4-1.2
			C831.4,142.9,831.3,142.6,830.9,142.3L830.9,142.3z M815.5,126.4c0,0-0.2,0.1-1.1,0.1h-7c-0.4,0-1,0-1,0c0-0.1,0.1-0.6,0.2-0.8
			l3.6-10c0.4-1.1,0.8-2,1-2.6c0.3,0.8,0.7,1.8,1,2.8l3.1,9.3C815.5,126.1,815.6,126.4,815.5,126.4z"/>
		<path class="st3" d="M870.4,143.1l-0.1,0c-1.4-0.1-2.7-0.6-3.7-1.5c-3.9-3.3-7.1-8.1-11.4-15.1c-0.3-0.5-0.3-0.7-0.3-0.8
			c1.9-0.8,7.3-3.6,7.3-9.9c0-4.8-2.7-7.2-5-8.4c-2.9-1.6-6.5-1.8-9.8-1.8c-5.2,0-9.3,0.1-12.8,0.5l-0.2,0c-0.3,0.2-0.5,0.5-0.6,1
			c0,0.5,0.1,1,0.5,1.2l2,0.3c1.9,0.2,2.1,0.6,2.1,6.3v20.6c0,6.1-0.1,6.4-3.1,6.7l-1.6,0.2l-0.1,0.1c-0.3,0.4-0.4,0.9-0.3,1.3
			c0.1,0.4,0.3,0.7,0.5,0.8l0.1,0.1l0.1,0c2.9-0.1,4.9-0.2,7.1-0.2c2.4,0,4.5,0.1,6.8,0.2l0.1,0l0.1-0.1c0.4-0.2,0.5-0.8,0.5-1
			c0.1-0.5-0.1-0.9-0.3-1.2l-0.1-0.1l-1.3-0.2c-2.9-0.4-3.1-0.7-3.1-6.7v-7.2c0-0.8,0-0.8,2.3-0.8c2.2,0,2.9,0.5,3.7,1.6
			c0.9,1.3,1.9,2.9,2.9,4.4c1,1.6,2,3.1,2.7,4.2c3.9,5.6,6.9,7.4,12.2,7.4c1.1,0,2.1-0.1,2.7-0.3l0.1-0.1c0.3-0.2,0.4-0.5,0.3-0.9
			C870.9,143.5,870.7,143.2,870.4,143.1z M844,109.6c0-1.3,0-1.4,3.3-1.4c6.4,0,8.7,4.5,8.7,8.4c0,3.1-0.9,5.3-2.7,6.8
			c-1.6,1.2-3.9,1.4-5.6,1.4c-2.6,0-3.4-0.1-3.6-0.2c-0.1-0.2-0.1-0.9-0.1-1.6V109.6z"/>
		<path class="st3" d="M902.7,134.3c-0.3,0-0.6,0.1-0.8,0.2l-0.1,0.1l0,0.1c-1.2,3-4.2,7.9-11.6,7.9c-9.9,0-16.6-7.3-16.6-18.2
			c0-12.5,8.1-17,15.8-17c6.4,0,10.1,2.6,11.3,8l0,0.1l0.1,0.1c0.6,0.5,1.8,0.4,2.2-0.2l0.1-0.1l0-0.2c-0.4-3.3-0.7-7-0.8-8.4l0-0.5
			l-0.5,0.1c-0.4,0-0.7,0-1.3-0.2l-0.1,0c-2.9-0.8-7.3-1.4-10.2-1.4c-6.1,0-11.6,1.7-15.7,5c-4.7,3.6-7.4,9.3-7.4,15.5
			c0,6.7,3,12.4,8.3,16.1c3.9,2.6,8.7,3.9,14.5,3.9c3.7,0,7.9-0.9,9.2-1.3c0.6-0.2,1.3-0.4,1.9-0.6l0.2,0l0.1-0.1
			c1-1.2,2.4-5.1,2.8-8.1l0-0.1l-0.1-0.1C903.7,134.5,903.1,134.3,902.7,134.3z"/>
		<path class="st3" d="M948.6,142.1c-2.9-0.4-3.1-0.7-3.1-6.7v-20.6c0-6.1,0.2-6.5,3-6.8l1.2-0.1l0.2-0.1c0.3-0.2,0.4-0.6,0.4-1.1
			c0-0.2-0.1-0.9-0.6-1.1l-0.1,0l-0.1,0c-2.8,0.1-4.7,0.2-6.7,0.2c-2.5,0-4.5-0.1-6.9-0.2l-0.1,0l-0.1,0c-0.5,0.2-0.5,0.9-0.6,1.1
			c0,0.5,0.1,0.9,0.4,1.1l1.3,0.2c2.9,0.3,3.1,0.7,3.1,6.8v6.6c0,1.4,0,1.4-2.4,1.4h-16.4c-2.4,0-2.4,0-2.4-1.4v-6.6
			c0-6.1,0.2-6.5,3-6.8l1.1-0.1l0.2-0.1c0.3-0.2,0.4-0.6,0.4-1.1c0-0.2-0.1-0.9-0.6-1.1l-0.1,0l-0.1,0c-2.6,0.1-4.5,0.2-6.6,0.2
			c-1.5,0-2.8,0-4.2-0.1c-0.9,0-1.9-0.1-3-0.1l-0.1,0l-0.1,0c-0.5,0.2-0.5,0.9-0.6,1.1c0,0.5,0.1,0.9,0.4,1.1l0.1,0.1l1.6,0.1
			c2.5,0.2,3,0.7,3,6.8v20.6c0,6-0.1,6.2-3,6.7l-1.1,0.2l-0.1,0.1c-0.3,0.3-0.4,0.9-0.3,1.2c0.1,0.4,0.3,0.7,0.5,0.9l0.1,0l0.1,0
			c0.7,0,1.5,0,2.2-0.1c1.4-0.1,2.8-0.1,4.5-0.1c2.2,0,4.1,0.1,7.3,0.2l0.1,0l0.1-0.1c0.5-0.2,0.5-0.9,0.6-1.1
			c0-0.5-0.1-0.9-0.4-1.1l-1.9-0.2c-2.8-0.3-3.1-0.6-3.1-6.7v-8.1c0-1.4,0-1.4,2.4-1.4h16.4c2.4,0,2.4,0,2.4,1.4v8.1
			c0,6,0,6.2-3.1,6.7l-1.2,0.2l-0.1,0.1c-0.3,0.3-0.4,0.9-0.3,1.2c0.1,0.4,0.3,0.7,0.5,0.9l0.1,0.1l0.1,0c2.7-0.1,4.7-0.2,6.9-0.2
			c2.3,0,4.3,0.1,6.9,0.2l0.1,0l0.1-0.1c0.4-0.2,0.5-0.7,0.6-1.1c0-0.5-0.1-0.9-0.4-1.1L948.6,142.1z"/>
		<path class="st3" d="M996.9,107.9c-2.6-1.6-6.1-2.4-11.2-2.4c-5.1,0-8.5,0.1-11.4,0.5l-0.1,0c-0.3,0.2-0.6,0.5-0.6,0.9
			c-0.1,0.5,0.1,0.9,0.4,1.2l0.1,0.1l2.2,0.2c2.1,0.2,2.3,0.7,2.3,5.7v21.1c0,6-0.1,6.3-3.1,6.7l-1.3,0.2l-0.1,0.1
			c-0.3,0.3-0.4,0.9-0.3,1.2c0.1,0.4,0.3,0.7,0.5,0.9l0.1,0.1l0.1,0c2.7-0.1,4.7-0.2,7-0.2c2.3,0,4.1,0.1,7.4,0.2l0.1,0l0.1-0.1
			c0.4-0.2,0.5-0.8,0.5-1c0.1-0.5-0.1-0.9-0.4-1.2l-0.1-0.1l-1.7-0.2c-3.2-0.4-3.4-0.7-3.4-6.7v-25.5c0-1.6,0-1.6,2.7-1.6
			c5.5,0,8.8,3.3,8.8,8.7c0,5.3-2.6,8.2-8.1,9.2c-0.3,0.1-0.5,0.4-0.5,0.9c0,0.5,0.2,0.9,0.6,1.1l0.2,0c2.8,0,5.8-0.7,8.1-1.8
			c2.2-1.1,6-3.8,6-9.5C1001.7,113.1,1000,109.9,996.9,107.9z"/>
		<path class="st3" d="M1041.2,143.1l-0.1,0c-1.4-0.1-2.7-0.6-3.7-1.5c-3.9-3.3-7.1-8.1-11.4-15.1c-0.3-0.5-0.3-0.7-0.3-0.8
			c1.9-0.8,7.3-3.6,7.3-9.9c0-4.8-2.7-7.2-5-8.4c-2.9-1.6-6.5-1.8-9.8-1.8c-5.2,0-9.3,0.1-12.8,0.5l-0.2,0c-0.3,0.2-0.5,0.5-0.6,1
			c0,0.5,0.1,1,0.5,1.2l2,0.3c1.9,0.2,2.1,0.6,2.1,6.3v20.6c0,6.1-0.1,6.4-3.1,6.7l-1.6,0.2l-0.1,0.1c-0.3,0.4-0.4,0.9-0.3,1.3
			c0.1,0.4,0.3,0.7,0.5,0.8l0.1,0.1l0.1,0c2.9-0.1,4.9-0.2,7.1-0.2c2.4,0,4.5,0.1,6.8,0.2l0.1,0l0.1-0.1c0.4-0.2,0.5-0.8,0.5-1
			c0.1-0.5-0.1-0.9-0.4-1.2l-0.1-0.1l-1.3-0.2c-2.9-0.4-3.1-0.7-3.1-6.7v-7.2c0-0.8,0-0.8,2.3-0.8c2.2,0,3,0.5,3.7,1.6
			c0.9,1.3,1.9,2.9,2.9,4.4c1,1.6,2,3.1,2.7,4.2c3.9,5.6,6.9,7.4,12.2,7.4c1.1,0,2.1-0.1,2.7-0.3l0.1-0.1c0.3-0.2,0.4-0.5,0.3-0.9
			C1041.7,143.5,1041.5,143.2,1041.2,143.1z M1014.8,109.6c0-1.3,0-1.4,3.3-1.4c6.4,0,8.7,4.5,8.7,8.4c0,3.1-0.9,5.3-2.7,6.8
			c-1.6,1.2-3.9,1.4-5.6,1.4c-2.6,0-3.4-0.1-3.6-0.2c-0.1-0.2-0.1-0.9-0.1-1.6V109.6z"/>
		<path class="st3" d="M1058.7,104.8c-11.9,0-20.8,8.9-20.8,20.6c0,9.9,7.1,19.8,20.8,19.8c11.6,0,20.3-8.8,20.3-20.4
			C1079,115.3,1072.6,104.8,1058.7,104.8z M1059.4,142.7c-11.8,0-15-12-15-19c0-11.9,7.1-16.2,13.3-16.2c10.8,0,14.7,10.3,14.7,19.2
			C1072.4,138.5,1065.4,142.7,1059.4,142.7z"/>
		<path class="st3" d="M1121,128.1l-0.1,0c-1.9,0.1-3.9,0.2-6,0.2c-3.5,0-6.6-0.1-8.2-0.2l-0.1,0l-0.1,0c-0.4,0.2-0.6,0.7-0.6,1.1
			c0,0.5,0.2,1,0.6,1.1l2.7,0.3c3.2,0.4,3.3,0.4,3.3,5.1v2.3c0,1.7-0.3,2.7-0.5,3c-0.5,0.7-2.3,1.5-5.9,1.5
			c-10.3,0-16.7-7.4-16.7-19.2c0-7.8,4.1-16.1,15.5-16.1c6.4,0,9.9,2.4,11.3,7.8l0,0.1l0.1,0.1c0.2,0.2,0.6,0.3,1,0.3
			c0.5,0,1.1-0.2,1.3-0.7l0-0.1l0-0.1c-0.6-3.8-0.9-6.5-0.9-8.2v-0.5l-0.5,0.1c-0.6,0.1-2.1-0.2-3.1-0.4l-0.3-0.1
			c-0.9-0.2-4-0.9-7.4-0.9c-8,0-14.1,2.2-18.5,6.8c-3.4,3.6-5.3,8.5-5.3,13.9c0,5.2,1.9,9.8,5.4,13.3c4.2,4.2,10.3,6.5,17.8,6.5
			c3.4,0,7.7-0.8,10.4-1.5c0.8-0.2,2-0.5,2.7-0.5h0.1l0.1-0.1c0.2-0.2,0.3-0.4,0.3-0.6c0-0.3-0.1-0.5-0.2-0.7l-0.2-0.1
			c-0.8-0.3-1.1-1.4-1.1-3.7v-3.2c0-3.1,0.2-4.2,2.1-4.4l1-0.1l0.1-0.1c0.3-0.3,0.5-0.7,0.4-1.2c0-0.4-0.2-0.8-0.5-1L1121,128.1z"/>
		<path class="st3" d="M1199.9,142.3l-1.7-0.2c-2.2-0.3-2.8-0.8-4.5-5.8l-8.2-23.9c-0.8-2.2-1.6-4.5-2.2-6.8
			c-0.2-0.5-0.6-0.8-1.3-0.8h-0.2l-0.1,0.2c-0.6,0.8-1.5,1.7-2.8,2l-0.4,0.1l0.1,0.4c0.2,0.8-0.2,1.8-1,3.8l-5.8,15.5
			c-1.7,4.4-3,7.6-3.9,10c-0.4,1.1-0.8,2-1.1,2.8c-0.8,2.1-2.1,2.4-3.1,2.5l-1.5,0.1c-1.2-0.1-2.5-0.5-3.3-1.3
			c-3.9-3.3-7-7.5-11.3-14.5c-0.3-0.5-0.3-0.7-0.3-0.8c1.9-0.8,7.3-3.6,7.3-9.9c0-4.8-2.7-7.2-5-8.4c-2.9-1.6-6.5-1.8-9.8-1.8
			c-5.2,0-9.3,0.1-12.8,0.5l-0.2,0c-0.3,0.2-0.5,0.5-0.6,1c0,0.5,0.1,1,0.5,1.2l2,0.3c1.9,0.2,2.1,0.6,2.1,6.3v20.6
			c0,6.1-0.1,6.4-3.1,6.7l-1.6,0.2l-0.1,0.1c-0.3,0.4-0.4,0.9-0.3,1.3c0.1,0.4,0.3,0.7,0.5,0.8l0.1,0.1l0.1,0
			c2.9-0.1,4.9-0.2,7.1-0.2c2.4,0,4.5,0.1,6.8,0.2l0.1,0l0.1-0.1c0.4-0.2,0.5-0.8,0.5-1c0.1-0.5-0.1-0.9-0.4-1.2l-0.1-0.1l-1.3-0.2
			c-2.9-0.4-3.1-0.7-3.1-6.7v-7.2c0-0.8,0-0.8,2.3-0.8c2.2,0,3,0.5,3.7,1.6c0.9,1.3,1.9,2.9,2.9,4.4c1,1.6,2,3.1,2.7,4.2
			c2.6,3.7,4.7,5.4,7.4,6.2c1.4,0.6,3,0.8,4.8,0.8c0.6,0,1.2,0,1.7,0h0l1.3-0.1c1.3-0.1,2.8-0.1,4.3-0.1l1.9,0c1.7,0,2.9,0.1,4,0.1
			l0.1,0l0.1,0c0.4-0.2,0.6-0.5,0.6-1c0-0.5-0.1-1-0.5-1.2l-0.1-0.1l-2-0.2c-1.3-0.1-1.3-0.4-1.3-0.7c0-0.4,0.2-1.5,1.2-4.6l2-6
			c0.3-1,0.4-1.1,1.8-1.1h8.6c1.6,0,1.6,0.1,1.9,1.1l2.5,7.8c0.3,1,0.7,2.2,0.7,2.9c0,0.2-0.4,0.5-1.6,0.6l-1.8,0.2l-0.1,0.1
			c-0.3,0.2-0.5,0.7-0.4,1.1c0,0.5,0.3,0.9,0.6,1l0.1,0.1l1.2,0c1.5-0.1,3.3-0.1,5.5-0.1c2.4,0,4.4,0.1,6.9,0.2l0.2,0l0.1-0.1
			c0.3-0.3,0.4-0.8,0.4-1.2C1200.4,142.9,1200.3,142.6,1199.9,142.3L1199.9,142.3z M1184.5,126.4c0,0-0.2,0.1-1.1,0.1h-7
			c-0.4,0-1,0-1,0c0-0.1,0.1-0.6,0.2-0.8l3.6-10c0.4-1.1,0.8-2,1-2.6c0.3,0.8,0.7,1.8,1,2.8l3.1,9.3
			C1184.6,126.1,1184.6,126.4,1184.5,126.4z M1136.5,109.6c0-1.3,0-1.4,3.3-1.4c6.4,0,8.7,4.5,8.7,8.4c0,3.1-0.9,5.3-2.7,6.8
			c-1.6,1.2-3.9,1.4-5.6,1.4c-2.6,0-3.4-0.1-3.6-0.2c-0.1-0.2-0.1-0.9-0.1-1.6V109.6z"/>
		<path class="st3" d="M1250.6,142.4l-0.1-0.1l-2-0.2c-2.2-0.2-2.2-1.2-2.4-3.8l0-0.4c-0.4-6.4-0.5-14.1-0.6-20.2
			c0-1.7,0-3.3-0.1-4.7c-0.1-3.8,0.3-4.7,3.6-5l1.3-0.1l0.1-0.1c0.4-0.3,0.4-0.9,0.4-1.1c0-0.5-0.2-0.8-0.5-1l-0.1-0.1l-0.1,0
			c-1.6,0.1-3.5,0.2-5.1,0.2c-1.1,0-2.3,0-4.3-0.2l-0.4,0l0,0.4c-0.1,2.3-1.6,5.3-3.7,9.7l-6.4,13c-1.2,2.4-2.4,4.9-3.6,7.1
			c-1.1-2-2-4-3.1-6.1l-7.1-14.4c-1.4-2.8-3.2-6.9-2.9-9.2l0.1-0.5l-0.5,0c-1.9,0.2-3.4,0.2-4.7,0.2c-1.4,0-2.7-0.1-4.5-0.2l-0.1,0
			l-0.1,0.1c-0.3,0.2-0.5,0.5-0.6,0.9c-0.1,0.5,0,0.9,0.2,1.2l0.1,0.1l1.1,0.1c3.2,0.4,3.6,1,3.5,4.5c-0.1,2.8-0.3,7.6-0.6,12.8
			c-0.3,5.5-0.6,8.7-0.9,12.4l0,0.2c-0.3,3.9-1.1,4-3.2,4.3l-1.4,0.2l-0.1,0.1c-0.2,0.2-0.4,0.5-0.4,0.9c0,0.4,0.1,0.9,0.5,1.2
			l0.1,0.1l0.2,0c1.9-0.1,3.9-0.2,5.8-0.2c2.2,0,4.4,0.1,6.3,0.2l0.1,0l0.1,0c0.3-0.1,0.5-0.4,0.6-0.9c0.1-0.4,0-1-0.4-1.3l-0.1-0.1
			l-2.3-0.2c-1.8-0.1-2.2-0.6-2.2-4.9c0-4.7,0.2-9.7,0.4-13.4c0.1-2.9,0.3-5.7,0.5-8.7c0.5,1.1,1,2.3,1.5,3.5c0.5,1.2,1,2.4,1.5,3.5
			l5.2,11.1l0.7,1.5c1.4,2.9,3.5,7.4,4.3,9.9l0.1,0.1c0.2,0.3,0.7,0.4,0.9,0.4c0.5,0,0.8-0.2,1-0.5c1-2.4,3.4-7.7,6.2-13l5.1-10
			c0.5-1,1.2-2.4,1.8-3.7c0.4-0.9,0.9-1.8,1.2-2.4l0.2,22.4c0,3.6,0,4.2-2.4,4.4l-1.8,0.2l-0.1,0.1c-0.3,0.3-0.4,0.7-0.3,1.1
			c0,0.4,0.2,0.8,0.5,1l0.1,0.1l0.2,0c2.2-0.1,4.8-0.2,6.9-0.2c2.1,0,4.4,0.1,6.7,0.2l0.1,0l0.1-0.1c0.3-0.2,0.5-0.5,0.5-0.9
			C1251,143.1,1250.9,142.7,1250.6,142.4z"/>
	</g>
	<g>
		<polygon class="st4" points="165.1,180.6 157.2,180.6 157.2,174.2 154.8,174.2 154.8,190.8 157.2,190.8 157.2,182.8 165.1,182.8 
			165.1,190.8 167.5,190.8 167.5,174.2 165.1,174.2 		"/>
		<polygon class="st4" points="179.5,190.8 190.5,190.8 190.5,188.6 182,188.6 182,182.8 190.5,182.8 190.5,180.6 182,180.6 
			182,176.4 190.5,176.4 190.5,174.2 179.5,174.2 		"/>
		<polygon class="st4" points="204,174.2 201.6,174.2 201.6,190.8 212.2,190.8 212.2,188.6 204,188.6 		"/>
		<path class="st4" d="M230.9,175.2c-0.5-0.4-1.2-0.6-1.9-0.8c-0.7-0.2-1.5-0.3-2.5-0.3h-4.6v16.6h2.5v-6.1h2c1.2,0,2.2-0.1,3-0.4
			c0.8-0.3,1.5-0.7,2-1.3c0.5-0.5,0.8-1,1.1-1.7c0.3-0.6,0.4-1.3,0.4-2.1c0-1-0.2-1.8-0.5-2.4C232,176.2,231.5,175.6,230.9,175.2z
			 M224.4,176.3h2c0.7,0,1.2,0,1.7,0.1c0.4,0.1,0.8,0.2,1.2,0.5c0.4,0.2,0.7,0.6,0.8,1c0.2,0.4,0.3,0.9,0.3,1.4
			c0,0.5-0.1,0.9-0.2,1.3c-0.1,0.4-0.4,0.7-0.7,1.1c-0.3,0.3-0.8,0.6-1.3,0.7c-0.5,0.2-1.2,0.2-2.1,0.2h-1.7V176.3z"/>
		<polygon class="st4" points="242.7,176.1 244.8,176.1 244.8,188.8 242.7,188.8 242.7,190.8 249.4,190.8 249.4,188.8 247.3,188.8 
			247.3,176.1 249.4,176.1 249.4,174.2 242.7,174.2 		"/>
		<polygon class="st4" points="271.1,187.1 264.3,174.2 260.7,174.2 260.7,190.8 263,190.8 263,176.6 270.5,190.8 273.4,190.8 
			273.4,174.2 271.1,174.2 		"/>
		<path class="st4" d="M292.4,184.5h4.4v3.8c-0.5,0.2-1.1,0.4-1.7,0.5c-0.7,0.1-1.4,0.2-2.1,0.2c-1.9,0-3.4-0.6-4.4-1.7
			c-1.1-1.1-1.6-2.8-1.6-4.8c0-2,0.5-3.5,1.6-4.7c1-1.1,2.5-1.7,4.2-1.7c0.8,0,1.5,0.1,2.1,0.2c0.6,0.1,1.2,0.3,1.7,0.6
			c0.4,0.2,0.8,0.4,1.3,0.7c0.4,0.3,0.7,0.5,1,0.7l0,0h0.4v-2.8l-0.1,0c-1.1-0.5-2.2-0.9-3.2-1.1c-1-0.2-1.9-0.3-2.9-0.3
			c-2.7,0-4.8,0.8-6.4,2.3c-1.5,1.5-2.3,3.6-2.3,6.3c0,1.4,0.2,2.7,0.6,3.8c0.4,1.1,1,2,1.8,2.7c0.8,0.7,1.7,1.3,2.8,1.6
			c1.1,0.4,2.3,0.5,3.5,0.5c1,0,2-0.2,3.1-0.5c1.1-0.3,2.1-0.7,2.9-1.1l0.1,0v-7.2h-6.8V184.5z"/>
		<path class="st4" d="M331.6,181.7c-0.6-0.2-1.3-0.3-2.2-0.5c-0.9-0.2-1.6-0.3-2-0.4c-0.8-0.2-1.4-0.5-1.8-0.8
			c-0.3-0.4-0.5-0.9-0.5-1.5c0-0.7,0.3-1.3,1-1.7c0.7-0.5,1.6-0.7,2.7-0.7c1,0,2.1,0.2,3.1,0.5c1,0.3,1.8,0.8,2.4,1.3l0,0h0.4v-2.8
			l-0.1,0c-0.7-0.3-1.6-0.6-2.6-0.8c-1-0.2-2-0.3-3.2-0.3c-1.8,0-3.3,0.4-4.5,1.3c-1.2,0.9-1.8,2.1-1.8,3.5c0,1.2,0.4,2.2,1.1,3
			c0.7,0.8,1.8,1.3,3.3,1.6c0.7,0.1,1.4,0.3,2,0.4c0.7,0.1,1.2,0.2,1.8,0.4c0.7,0.2,1.2,0.4,1.6,0.8c0.3,0.3,0.5,0.8,0.5,1.5
			c0,0.8-0.3,1.4-1.1,1.9c-0.7,0.5-1.7,0.7-3.1,0.7c-0.9,0-1.9-0.2-3-0.6c-1.1-0.4-2-0.9-2.8-1.6l0,0h-0.4v3l0.1,0
			c1,0.4,1.9,0.8,2.9,1c0.9,0.2,2,0.3,3.2,0.3c1.1,0,2.1-0.1,2.9-0.4c0.8-0.3,1.5-0.6,2.1-1.1c0.6-0.4,1-1,1.3-1.6
			c0.3-0.6,0.5-1.3,0.5-1.9c0-1.2-0.3-2.2-1-2.8C333.7,182.5,332.8,182,331.6,181.7z"/>
		<polygon class="st4" points="353.8,183.1 349.6,174.2 346.4,174.2 346.4,190.8 348.7,190.8 348.7,177.2 353,186.3 354.5,186.3 
			358.8,177.2 358.8,190.8 361.2,190.8 361.2,174.2 358,174.2 		"/>
		<path class="st4" d="M380.4,174.2h-3.1l-6,16.6h2.5l1.6-4.6h6.9l1.6,4.5l0,0.1h2.6L380.4,174.2L380.4,174.2z M381.4,184.1h-5.3
			l2.7-7.4L381.4,184.1z"/>
		<polygon class="st4" points="398.9,174.2 396.4,174.2 396.4,190.8 407,190.8 407,188.6 398.9,188.6 		"/>
		<polygon class="st4" points="419.2,174.2 416.8,174.2 416.8,190.8 427.4,190.8 427.4,188.6 419.2,188.6 		"/>
		<polygon class="st4" points="447.5,180.6 439.6,180.6 439.6,174.2 437.1,174.2 437.1,190.8 439.6,190.8 439.6,182.8 447.5,182.8 
			447.5,190.8 449.9,190.8 449.9,174.2 447.5,174.2 		"/>
		<path class="st4" d="M474.3,176.1c-0.7-0.7-1.5-1.3-2.4-1.7c-0.9-0.4-2-0.6-3.2-0.6c-1.1,0-2.2,0.2-3.2,0.6c-1,0.4-1.8,1-2.5,1.7
			c-0.7,0.8-1.2,1.7-1.6,2.8c-0.4,1.1-0.5,2.3-0.5,3.6c0,1.4,0.2,2.6,0.5,3.7c0.4,1.1,0.9,2,1.5,2.7c0.7,0.7,1.5,1.3,2.5,1.7
			c0.9,0.4,2,0.6,3.2,0.6c1.2,0,2.3-0.2,3.2-0.6c0.9-0.4,1.8-1,2.4-1.7c0.7-0.7,1.2-1.6,1.6-2.7c0.4-1.1,0.5-2.3,0.5-3.7
			c0-1.4-0.2-2.6-0.5-3.7C475.5,177.8,475,176.8,474.3,176.1z M473.9,182.5c0,2.1-0.5,3.7-1.4,4.8c-0.9,1.1-2.2,1.7-3.8,1.7
			c-1.6,0-2.8-0.6-3.8-1.7c-0.9-1.1-1.4-2.7-1.4-4.8c0-2.1,0.5-3.7,1.4-4.8c0.9-1.1,2.2-1.7,3.8-1.7c1.6,0,2.9,0.6,3.8,1.7
			C473.4,178.8,473.9,180.4,473.9,182.5z"/>
		<polygon class="st4" points="489.9,174.2 487.4,174.2 487.4,190.8 498.1,190.8 498.1,188.6 489.9,188.6 		"/>
		<path class="st4" d="M518.3,175.5c-0.7-0.4-1.5-0.7-2.4-1c-0.9-0.2-2.2-0.4-3.8-0.4h-4.2v16.6h4.3c1.5,0,2.7-0.1,3.7-0.3
			c0.9-0.2,1.8-0.5,2.5-1c1.1-0.7,2-1.6,2.6-2.9c0.7-1.2,1-2.6,1-4.1c0-1.6-0.3-3-0.9-4.2C520.3,177.1,519.4,176.2,518.3,175.5z
			 M512.2,188.6h-1.9v-12.3h1.9c1,0,1.9,0.1,2.6,0.2c0.7,0.1,1.4,0.4,2,0.7c0.9,0.5,1.5,1.2,1.9,2c0.4,0.9,0.7,1.9,0.7,3.2
			c0,1.2-0.2,2.3-0.6,3.1c-0.4,0.8-1,1.5-1.8,2c-0.6,0.4-1.3,0.7-2.1,0.8C514.1,188.6,513.2,188.6,512.2,188.6z"/>
		<polygon class="st4" points="533,190.8 544,190.8 544,188.6 535.4,188.6 535.4,182.8 544,182.8 544,180.6 535.4,180.6 
			535.4,176.4 544,176.4 544,174.2 533,174.2 		"/>
		<path class="st4" d="M565.1,181.8c0.6-0.8,0.9-1.8,0.9-3c0-0.9-0.2-1.6-0.5-2.2c-0.3-0.6-0.8-1.1-1.4-1.5
			c-0.5-0.3-1.2-0.6-1.8-0.7c-0.7-0.1-1.5-0.2-2.5-0.2H555v16.6h2.5v-6.5h2.8l5.4,6.4l0,0.1h3.2l-6.2-7.2
			C563.8,183.2,564.6,182.6,565.1,181.8z M563.5,178.9c0,0.6-0.1,1.1-0.2,1.5c-0.1,0.4-0.4,0.7-0.7,1c-0.3,0.3-0.8,0.5-1.2,0.6
			c-0.5,0.1-1.1,0.2-1.8,0.2h-2v-5.9h2.4c0.6,0,1.1,0,1.5,0.1c0.4,0.1,0.8,0.2,1.1,0.4c0.4,0.2,0.6,0.5,0.8,0.9
			C563.4,178.1,563.5,178.5,563.5,178.9z"/>
		<polygon class="st4" points="591.1,190.8 593.5,190.8 593.5,182.9 600.6,182.9 600.6,180.7 593.5,180.7 593.5,176.4 601.8,176.4 
			601.8,174.2 591.1,174.2 		"/>
		<path class="st4" d="M617.9,174.2h-3.1l-6.1,16.6h2.5l1.6-4.6h6.9l1.6,4.5l0,0.1h2.6L617.9,174.2L617.9,174.2z M619,184.1h-5.3
			l2.7-7.4L619,184.1z"/>
		<path class="st4" d="M644.1,181.8c0.6-0.8,0.9-1.8,0.9-3c0-0.9-0.2-1.6-0.5-2.2c-0.3-0.6-0.8-1.1-1.4-1.5
			c-0.5-0.3-1.2-0.6-1.8-0.7c-0.7-0.1-1.5-0.2-2.5-0.2H634v16.6h2.5v-6.5h2.8l5.4,6.4l0,0.1h3.2l-6.2-7.2
			C642.7,183.2,643.5,182.6,644.1,181.8z M642.4,178.9c0,0.6-0.1,1.1-0.2,1.5c-0.2,0.4-0.4,0.7-0.7,1c-0.3,0.3-0.8,0.5-1.2,0.6
			c-0.5,0.1-1.1,0.2-1.8,0.2h-2v-5.9h2.4c0.6,0,1.1,0,1.5,0.1c0.4,0.1,0.8,0.2,1.1,0.4c0.4,0.2,0.6,0.5,0.8,0.9
			C642.3,178.1,642.4,178.5,642.4,178.9z"/>
		<polygon class="st4" points="664.9,183.1 660.7,174.2 657.5,174.2 657.5,190.8 659.8,190.8 659.8,177.2 664.1,186.3 665.5,186.3 
			669.8,177.2 669.8,190.8 672.3,190.8 672.3,174.2 669,174.2 		"/>
		<polygon class="st4" points="684.3,190.8 695.3,190.8 695.3,188.6 686.7,188.6 686.7,182.8 695.3,182.8 695.3,180.6 686.7,180.6 
			686.7,176.4 695.3,176.4 695.3,174.2 684.3,174.2 		"/>
		<path class="st4" d="M716.4,181.8c0.6-0.8,0.9-1.8,0.9-3c0-0.9-0.2-1.6-0.5-2.2c-0.3-0.6-0.8-1.1-1.4-1.5
			c-0.5-0.3-1.2-0.6-1.8-0.7c-0.7-0.1-1.5-0.2-2.5-0.2h-4.7v16.6h2.5v-6.5h2.8l5.4,6.4l0,0.1h3.2l-6.2-7.2
			C715.1,183.2,715.8,182.6,716.4,181.8z M714.8,178.9c0,0.6-0.1,1.1-0.2,1.5c-0.2,0.4-0.4,0.7-0.7,1c-0.3,0.3-0.8,0.5-1.2,0.6
			c-0.5,0.1-1.1,0.2-1.8,0.2h-2v-5.9h2.4c0.6,0,1.1,0,1.5,0.1c0.4,0.1,0.8,0.2,1.1,0.4c0.4,0.2,0.6,0.5,0.8,0.9
			C714.7,178.1,714.8,178.5,714.8,178.9z"/>
		<path class="st4" d="M738.2,181.7c-0.6-0.2-1.3-0.3-2.2-0.5c-0.9-0.2-1.6-0.3-2-0.4c-0.8-0.2-1.4-0.5-1.8-0.8
			c-0.3-0.4-0.5-0.9-0.5-1.5c0-0.7,0.3-1.3,1-1.7c0.7-0.5,1.6-0.7,2.7-0.7c1,0,2.1,0.2,3.1,0.5c1,0.3,1.8,0.8,2.4,1.3l0,0h0.4v-2.8
			l-0.1,0c-0.7-0.3-1.6-0.6-2.6-0.8c-1-0.2-2-0.3-3.2-0.3c-1.8,0-3.3,0.4-4.5,1.3c-1.2,0.9-1.8,2.1-1.8,3.5c0,1.2,0.4,2.2,1.1,3
			c0.7,0.8,1.8,1.3,3.3,1.6c0.7,0.1,1.4,0.3,2,0.4c0.7,0.1,1.2,0.2,1.8,0.4c0.7,0.2,1.2,0.4,1.6,0.8c0.3,0.3,0.5,0.8,0.5,1.5
			c0,0.8-0.3,1.4-1.1,1.9c-0.7,0.5-1.7,0.7-3.1,0.7c-0.9,0-1.9-0.2-3-0.6c-1.1-0.4-2-0.9-2.8-1.6l0,0h-0.3v3l0.1,0
			c1,0.4,1.9,0.8,2.9,1c0.9,0.2,2,0.3,3.2,0.3c1.1,0,2.1-0.1,2.9-0.4c0.8-0.3,1.5-0.6,2.1-1.1c0.5-0.4,1-1,1.3-1.6
			c0.3-0.6,0.5-1.3,0.5-1.9c0-1.2-0.3-2.2-1-2.8C740.4,182.5,739.4,182,738.2,181.7z"/>
		<polygon class="st4" points="765.6,190.8 768,190.8 768,182.9 775.1,182.9 775.1,180.7 768,180.7 768,176.4 776.3,176.4 
			776.3,174.2 765.6,174.2 		"/>
		<polygon class="st4" points="786.4,190.8 797.4,190.8 797.4,188.6 788.8,188.6 788.8,182.8 797.4,182.8 797.4,180.6 788.8,180.6 
			788.8,176.4 797.4,176.4 797.4,174.2 786.4,174.2 		"/>
		<polygon class="st4" points="808.4,190.8 819.5,190.8 819.5,188.6 810.9,188.6 810.9,182.8 819.5,182.8 819.5,180.6 810.9,180.6 
			810.9,176.4 819.5,176.4 819.5,174.2 808.4,174.2 		"/>
		<path class="st4" d="M841,175.5c-0.7-0.4-1.5-0.7-2.4-1c-0.9-0.2-2.2-0.4-3.8-0.4h-4.2v16.6h4.3c1.5,0,2.7-0.1,3.7-0.3
			c0.9-0.2,1.8-0.5,2.5-1c1.1-0.7,2-1.6,2.6-2.9c0.7-1.2,1-2.6,1-4.1c0-1.6-0.3-3-0.9-4.2C843,177.1,842.1,176.2,841,175.5z
			 M834.9,188.6H833v-12.3h1.9c1,0,1.9,0.1,2.6,0.2c0.7,0.1,1.4,0.4,2,0.7c0.9,0.5,1.5,1.2,1.9,2c0.4,0.9,0.7,1.9,0.7,3.2
			c0,1.2-0.2,2.3-0.6,3.1c-0.4,0.8-1,1.5-1.8,2c-0.6,0.4-1.3,0.7-2.1,0.8C836.8,188.6,835.9,188.6,834.9,188.6z"/>
		<polygon class="st4" points="866,176.4 871.9,176.4 871.9,190.8 874.3,190.8 874.3,176.4 880.2,176.4 880.2,174.2 866,174.2 		"/>
		<polygon class="st4" points="900.3,180.6 892.4,180.6 892.4,174.2 889.9,174.2 889.9,190.8 892.4,190.8 892.4,182.8 900.3,182.8 
			900.3,190.8 902.7,190.8 902.7,174.2 900.3,174.2 		"/>
		<polygon class="st4" points="914.7,190.8 925.7,190.8 925.7,188.6 917.1,188.6 917.1,182.8 925.7,182.8 925.7,180.6 917.1,180.6 
			917.1,176.4 925.7,176.4 925.7,174.2 914.7,174.2 		"/>
		<polygon class="st4" points="936.1,176.1 938.2,176.1 938.2,188.8 936.1,188.8 936.1,190.8 942.8,190.8 942.8,188.8 940.7,188.8 
			940.7,176.1 942.8,176.1 942.8,174.2 936.1,174.2 		"/>
		<path class="st4" d="M964.1,181.8c0.6-0.8,0.9-1.8,0.9-3c0-0.9-0.2-1.6-0.5-2.2c-0.3-0.6-0.8-1.1-1.4-1.5
			c-0.5-0.3-1.2-0.6-1.8-0.7c-0.7-0.1-1.5-0.2-2.5-0.2h-4.7v16.6h2.5v-6.5h2.8l5.4,6.4l0,0.1h3.2l-6.2-7.2
			C962.8,183.2,963.6,182.6,964.1,181.8z M962.5,178.9c0,0.6-0.1,1.1-0.2,1.5c-0.2,0.4-0.4,0.7-0.7,1c-0.3,0.3-0.8,0.5-1.2,0.6
			c-0.5,0.1-1.1,0.2-1.8,0.2h-2v-5.9h2.4c0.6,0,1.1,0,1.5,0.1c0.4,0.1,0.8,0.2,1.1,0.4c0.4,0.2,0.6,0.5,0.8,0.9
			C962.4,178.1,962.5,178.5,962.5,178.9z"/>
		<polygon class="st4" points="1003.7,187.4 1000.4,174.3 1000.4,174.2 998,174.2 994.7,187.3 991.4,174.3 991.4,174.2 988.9,174.2 
			993.3,190.8 995.9,190.8 999.1,177.7 1002.4,190.7 1002.5,190.8 1005.1,190.8 1009.4,174.2 1007,174.2 		"/>
		<path class="st4" d="M1032.6,176.1c-0.7-0.7-1.5-1.3-2.4-1.7c-0.9-0.4-2-0.6-3.2-0.6c-1.1,0-2.2,0.2-3.2,0.6c-1,0.4-1.8,1-2.5,1.7
			c-0.7,0.8-1.2,1.7-1.6,2.8c-0.4,1.1-0.5,2.3-0.5,3.6c0,1.4,0.2,2.6,0.5,3.7c0.4,1.1,0.9,2,1.6,2.7c0.7,0.7,1.5,1.3,2.4,1.7
			c0.9,0.4,2,0.6,3.2,0.6c1.2,0,2.3-0.2,3.2-0.6c0.9-0.4,1.8-1,2.4-1.7c0.7-0.7,1.2-1.6,1.5-2.7c0.4-1.1,0.6-2.3,0.6-3.7
			c0-1.4-0.2-2.6-0.5-3.7C1033.8,177.8,1033.3,176.8,1032.6,176.1z M1032.2,182.5c0,2.1-0.5,3.7-1.4,4.8c-0.9,1.1-2.2,1.7-3.8,1.7
			c-1.6,0-2.8-0.6-3.8-1.7c-0.9-1.1-1.4-2.7-1.4-4.8c0-2.1,0.5-3.7,1.4-4.8c0.9-1.1,2.2-1.7,3.8-1.7c1.6,0,2.9,0.6,3.8,1.7
			C1031.7,178.8,1032.2,180.4,1032.2,182.5z"/>
		<path class="st4" d="M1055.8,181.8c0.6-0.8,0.9-1.8,0.9-3c0-0.9-0.2-1.6-0.5-2.2c-0.3-0.6-0.8-1.1-1.4-1.5
			c-0.5-0.3-1.2-0.6-1.8-0.7c-0.7-0.1-1.5-0.2-2.5-0.2h-4.7v16.6h2.5v-6.5h2.8l5.4,6.4l0,0.1h3.2l-6.2-7.2
			C1054.5,183.2,1055.2,182.6,1055.8,181.8z M1054.2,178.9c0,0.6-0.1,1.1-0.2,1.5c-0.1,0.4-0.4,0.7-0.7,1c-0.3,0.3-0.8,0.5-1.2,0.6
			c-0.5,0.1-1.1,0.2-1.8,0.2h-2v-5.9h2.4c0.6,0,1.1,0,1.5,0.1c0.4,0.1,0.8,0.2,1.1,0.4c0.4,0.2,0.6,0.5,0.8,0.9
			C1054.1,178.1,1054.2,178.5,1054.2,178.9z"/>
		<polygon class="st4" points="1071.7,174.2 1069.2,174.2 1069.2,190.8 1079.8,190.8 1079.8,188.6 1071.7,188.6 		"/>
		<path class="st4" d="M1102.7,178.3c-0.6-1.2-1.5-2.1-2.6-2.8c-0.7-0.4-1.5-0.7-2.4-1c-0.9-0.2-2.2-0.4-3.8-0.4h-4.2v16.6h4.3
			c1.5,0,2.7-0.1,3.7-0.3c0.9-0.2,1.8-0.5,2.5-1c1.1-0.7,2-1.6,2.6-2.9c0.7-1.2,1-2.6,1-4.1C1103.7,180.9,1103.3,179.5,1102.7,178.3
			z M1093.9,188.6h-1.9v-12.3h1.9c1,0,1.9,0.1,2.6,0.2c0.7,0.1,1.4,0.4,2,0.7c0.9,0.5,1.5,1.2,1.9,2c0.4,0.9,0.7,1.9,0.7,3.2
			c0,1.2-0.2,2.3-0.6,3.1c-0.4,0.8-1,1.5-1.8,2c-0.6,0.4-1.3,0.7-2.1,0.8C1095.9,188.6,1095,188.6,1093.9,188.6z"/>
	</g>
</g>
</svg>
